<svg xmlns="http://www.w3.org/2000/svg" viewBox="0 0 512 512"><defs><style>.cls-1{fill:#fff;}</style></defs><g id="Layer_2" data-name="Layer 2"><g id="Layer_1-2" data-name="Layer 1"><path class="cls-1" d="M177,0c9.28,2.42,17.9,6,24.66,13.2,8.47,9,12,19.82,12,31.88q.07,132.75-.07,265.49a28.69,28.69,0,0,1-2.24,10.1c-7,17.92-14.31,35.75-21.73,54.18,2.84.3,5.24.4,7.58.82,4.88.87,7.83,4,7.7,8.35-.13,4.6-2.64,8.09-7.14,8.21a270.48,270.48,0,0,1-31.84-.59c-5.51-.5-9.13-5.21-11.24-10.41-8.56-21.09-17.12-42.19-25.48-63.37a23.13,23.13,0,0,1-1.08-8.33q-.09-91.5,0-183v-6.31H102.81v6.19q0,147.73,0,295.48a30.74,30.74,0,0,1-.67,6.91c-1,4.06-3.73,6.23-7.9,6.26-4.37,0-7.18-2.14-8.31-6.44-1.63-6.21-2.39-12.86-5.17-18.51-6.32-12.86-22.09-19.76-35.9-16.76-15,3.26-26.14,15.18-26.88,30.09-.63,13-.36,26-.25,39,.12,16,13,32.1,34.91,32.55.83,0,1.66,0,2.49,0H397.59c15,0,27.12-5.36,33.86-19.36,2.17-4.5,2.65-9.86,3.64-14.88.82-4.11,2.61-7.81,6.94-8,2.86-.09,6.23,1.56,8.53,3.45,1.38,1.14,1.58,4.26,1.54,6.47-.34,22.67-17.33,43-40,48.19A30.22,30.22,0,0,0,409,512H44a7.82,7.82,0,0,0-1.74-.86c-16.34-3.25-28.56-12.22-36.11-27C3.42,478.76,2,472.73,0,467V79a5.91,5.91,0,0,0,.91-1.66C4,60.31,13.34,48,28.57,39.87c30.1-16.07,69.48,4.37,73.37,38.34.9,7.87.89,15.85,1.3,23.85h24.83V96.3c0-17.33,0-34.67,0-52,0-12,3.79-22.53,12.1-31.32C147,5.8,155.68,2.32,165,0ZM85.32,388v-6.48q0-145.42,0-290.87,0-4.25-.25-8.48C83.9,62.38,62.73,47.31,43.54,52.54c-16.87,4.6-26.13,17.15-26.14,36q-.07,147.44,0,294.87c0,1.35.23,2.69.38,4.4C40.43,371.41,62.52,371.52,85.32,388Zm76.81-97.56v-6.13q0-67.48,0-135a23.19,23.19,0,0,1,.82-6.87c1.26-4,4.28-5.8,8.44-5.52s6.83,2.53,7.56,6.65a40.43,40.43,0,0,1,.44,7q0,66.73,0,133.47v6.35l16.31,5.26V86.2H145.69V295.67ZM195.68,68a7.24,7.24,0,0,0,.45-1.62c0-8.14.17-16.29,0-24.43-.31-12.22-9.55-22.59-21.15-24-13.5-1.7-25.8,5.24-28.2,17.9-2,10.42-1.41,21.33-2,32.2ZM147.12,316.55l23.42,58.05a22.47,22.47,0,0,0,1.56-2.6c7.1-17.53,14.11-35.08,21.33-52.56,1.09-2.64.14-3.82-1.67-5.41C182,305.44,158.86,304.32,147.12,316.55Z"/><path class="cls-1" d="M512,356c-5.32,12.94-17.52,13.1-29.66,15.44,2.5,3.81,4.71,7.19,6.94,10.55,7.16,10.8,6.41,18.22-2.78,27.44-3.18,3.18-6.35,6.38-9.55,9.54-8.44,8.36-16.08,9.13-25.88,2.65l-11.17-7.43c-1.06,4.85-2,9.09-2.9,13.35-2.17,11-8.51,16.32-19.74,16.36-5.67,0-11.34.08-17,0-8.69-.15-15.27-5.31-17.35-13.7-1.23-5-2.15-10.06-3.4-16l-11.24,7.36c-9.94,6.53-17.45,5.79-25.86-2.57-4.14-4.12-8.34-8.17-12.33-12.42-5.72-6.07-6.54-13.94-2.21-21.12,2.73-4.53,5.73-8.89,9-13.93l-13.51-2.67c-10.58-2.07-16.17-8.75-16.24-19.47q-.06-8,0-16c.08-10.76,5.6-17.27,16.31-19.34,4.2-.81,8.37-1.73,13.4-2.78l-7.61-11.63c-6.16-9.42-5.41-17.07,2.49-25.11,3.5-3.56,7-7.09,10.58-10.62,8.33-8.27,16.2-9.1,25.89-2.73,3.58,2.35,7.14,4.73,11.27,7.47,1.24-5.76,2.21-10.91,3.47-16,2.12-8.49,8.61-13.53,17.34-13.62,6,0,12,0,18,0,10,0,16.63,5.52,18.62,15.27.92,4.51,1.83,9,2.91,14.33l11.7-7.67c9.22-6,17.23-5.26,25.14,2.51,3.8,3.74,7.59,7.49,11.3,11.31,7.29,7.5,8.1,15.7,2.45,24.38-2.5,3.85-5.05,7.66-8,12.12C494.2,313.9,506.86,313.72,512,327ZM355.79,273.64a45.46,45.46,0,0,1-3,4c-3.24,3.55-8.84,6.74-9.27,10.56s4.3,8.11,6.87,12.14c7.87,12.39,2.76,24.89-11.56,28.25-4.75,1.12-11.38,1-13.65,4-2.42,3.25-.69,9.59-.77,14.58,0,.33-.13.78,0,1,1.08,1.32,2,3.29,3.39,3.72,3.78,1.17,7.81,1.56,11.68,2.48,13.42,3.19,18.58,15.7,11.28,27.37-2.64,4.22-5.47,8.32-7.85,11.92l14.26,14.45c4.28-2.8,8.73-6,13.48-8.75,10.4-5.94,22-1.17,25.35,10.37,1.27,4.46,1.84,9.12,3,13.61.31,1.21,1.53,3.06,2.4,3.1,6.07.27,12.16.14,18.17.14,1.06-5.35,1.85-9.94,2.9-14.46,3.36-14.41,15.77-19.44,28.18-11.47,4,2.58,8,5.23,11.85,7.76l14.1-14.23c-2.9-4.43-6.12-8.9-8.87-13.64-6.2-10.69-1.51-22.28,10.36-25.63,4.47-1.26,9.13-1.81,13.61-3,1.24-.33,3-1.84,3.05-2.88.3-5.77.14-11.57.14-17.51-5.64-1.19-10.86-2.08-16-3.42-13-3.39-17.72-15.46-10.65-26.87,2.7-4.35,5.64-8.55,8-12.15L462,274.65c-4,2.64-8.21,5.63-12.62,8.3-11.2,6.78-23.18,1.88-26.46-10.84-1.32-5.11-2.23-10.34-3.42-16-5.92,0-11.72-.16-17.5.14-1.06.06-2.58,1.82-2.92,3.06-1,3.84-1.5,7.82-2.36,11.72-3,13.66-15.76,19-27.61,11.5C364.92,279.87,360.83,277,355.79,273.64Z"/><path class="cls-1" d="M302.73,200.93c-4.49,3-8.48,5.67-12.53,8.26-8.11,5.18-16.37,4.5-23.23-2.05q-6.69-6.39-13.07-13.09c-6.52-6.86-7.19-15.17-2-23.24,2.6-4,5.29-8,8.22-12.44-5.29-1.13-10.1-2.09-14.87-3.2C236,153,230.78,147,230.4,137.7c-.26-6.32-.25-12.67,0-19,.37-9.48,5.94-15.74,15.26-17.68l14.43-3c-3-4.57-5.7-8.56-8.28-12.63-5.15-8.11-4.37-16.3,2.28-23.16,4.41-4.55,8.85-9.07,13.44-13.43a17.37,17.37,0,0,1,21.6-2.25c4.39,2.68,8.61,5.63,13.53,8.88,1.16-5.37,2.18-10.29,3.3-15.19,2.05-9,8.15-14.1,17.25-14.32q9.74-.24,19.5,0c8.92.23,15.33,5.68,17.21,14.43,1,4.84,2,9.69,3.13,15.09,4.53-3,8.51-5.68,12.55-8.27,8.16-5.22,16.6-4.32,23.58,2.51q6.06,6,12,12c7.2,7.31,8,15.68,2.32,24.38-2.44,3.75-4.94,7.47-7.88,11.89,5.11,1.1,9.7,2.12,14.31,3.07,9.71,2,15,8.16,15.27,18,.15,6.33.18,12.67,0,19-.3,9-5.33,15-14,17-5,1.16-10,2.14-15.49,3.33,2.82,4.27,5.39,8.11,7.91,12,5.62,8.64,4.81,17-2.41,24.4-4,4.06-7.94,8.09-12,12-7.19,6.95-15.18,7.74-23.56,2.4-4-2.58-8-5.27-12.52-8.2-1.09,5.13-2.09,9.81-3.07,14.49-2,9.32-8.31,14.91-17.71,15.22-6.33.22-12.67.23-19,0-9-.33-15.32-5.72-17.31-14.44C304.87,211.39,303.91,206.5,302.73,200.93Zm115.34-82.65c-5.25-1.12-10-2-14.67-3.14-14.25-3.35-19.24-15.5-11.42-27.78,2.66-4.16,5.43-8.24,7.59-11.53L385.81,61.08c-4.28,2.82-8.37,5.66-12.6,8.3C361.44,76.72,349.1,71.6,346,58.09c-1.15-5-2.15-10-3.19-14.85H322.92c-1,4.79-1.95,9.33-2.91,13.88C316.93,71.8,304.35,77,291.69,68.86c-4-2.6-8-5.27-11.26-7.44L265.77,75.25c2.9,4.38,5.88,8.58,8.56,13,6.91,11.33,1.81,23.65-11.05,26.75-5.09,1.23-10.25,2.22-15.47,3.34,0,5,.27,9.52-.08,14s.66,6.92,5.67,7c2.77.06,5.52,1.11,8.28,1.68,14.68,3,20,15.65,11.93,28.27-2.59,4-5.28,8-7.56,11.4L280.44,195c3.91-2.58,8.12-5.54,12.5-8.22,11.44-7,24.06-1.57,26.94,11.53.85,3.9,1.28,7.9,2.39,11.71.38,1.31,2.17,3,3.4,3.11,5.62.34,11.26.15,17.09.15,1.1-5.07,2.06-9.76,3.13-14.43,3.31-14.39,15.74-19.37,28.18-11.3,4,2.6,8,5.27,11.2,7.4L399.92,181c-2.85-4.28-5.84-8.48-8.52-12.88-6.95-11.43-1.52-24,11.54-26.94,3.9-.86,7.92-1.23,11.71-2.37,1.39-.42,3.17-2.37,3.26-3.72C418.28,129.61,418.07,124.12,418.07,118.28Z"/><path class="cls-1" d="M248,443.73h80a50.27,50.27,0,0,1,5.49.19c4.71.53,7.71,3.73,7.81,8.17a8.51,8.51,0,0,1-7.4,8.66,17.53,17.53,0,0,1-3,.16q-83.25,0-166.49,0c-6.56,0-10.27-3-10.48-8.16-.2-4.62,2.5-8.05,7.09-8.73a41.16,41.16,0,0,1,6-.28Q207.51,443.72,248,443.73Z"/><path class="cls-1" d="M273.51,409.6c11,0,22,0,33,0,3.93,0,7.63,1.44,8.5,5.51.55,2.6.11,6.17-1.38,8.21s-4.76,3.34-7.27,3.37c-22.15.25-44.29.23-66.44.09-5.59,0-9.23-3.68-9.33-8.45-.11-4.94,3.54-8.6,9.48-8.71C251.19,409.45,262.35,409.6,273.51,409.6Z"/><path class="cls-1" d="M260.27,392.8c-8.82,0-17.65.07-26.47,0a19.92,19.92,0,0,1-6.36-.94,8.32,8.32,0,0,1,.68-15.78,20.07,20.07,0,0,1,5.41-.69q27-.08,54,0c.5,0,1,0,1.5,0,6,.44,9.74,3.74,9.83,8.58.1,5-3.89,8.72-10.07,8.83C279.26,392.92,269.76,392.8,260.27,392.8Z"/><path class="cls-1" d="M183.61,426.89c-6.48,0-13,.07-19.45,0s-10.13-3.24-10.24-8.44c-.12-5.37,3.31-8.72,9.77-8.8q19.94-.25,39.89,0c6.25.08,10,3.73,9.87,8.82s-4.07,8.32-10.4,8.42C196.57,427,190.09,426.89,183.61,426.89Z"/><path class="cls-1" d="M460.92,341.47c0,27.81-23.38,51.21-51.19,51.3-27.63.09-51.21-23.35-51.43-51.16s23.53-51.56,51.51-51.5C437.56,290.18,460.94,313.67,460.92,341.47Zm-51.25,33.78a33.9,33.9,0,1,0-33.87-33.83A33.91,33.91,0,0,0,409.67,375.25Z"/><path class="cls-1" d="M332.25,179.35c-28.53-.63-51.22-24.1-50.48-52.22.77-29,24-50.82,53.52-50,26.32.69,50.29,24.5,48.8,54.36C382.81,157.39,359,179.93,332.25,179.35Zm0-17.28A34.23,34.23,0,0,0,367,128.35c.19-18.34-15.29-34-33.9-34.24-18.16-.25-33.78,15-34.13,33.39A34,34,0,0,0,332.21,162.07Z"/></g></g></svg>