<svg xmlns="http://www.w3.org/2000/svg" viewBox="0 0 512 517.69"><defs><style>.cls-1{fill:#fff;}</style></defs><g id="Layer_2" data-name="Layer 2"><g id="Layer_1-2" data-name="Layer 1"><path class="cls-1" d="M512,362V512H271V361.78H376.05V332.23H136.1v29.89H241V512H0V362H105.47V301.63H240.69v-29.7h-6.24q-57,0-114,0a97.58,97.58,0,0,1-12.44-.82,77.64,77.64,0,0,1-66.77-66c-5-33.77,13.52-67.31,45.11-81.41,3.13-1.4,4-3,3.84-6.33A110.17,110.17,0,0,1,165.81,5.52C173.34,3.06,181.26,1.81,189,0h23a14.1,14.1,0,0,0,2.74.94,109,109,0,0,1,47.54,18.14,112.87,112.87,0,0,1,31.19,32c1.53-.38,2.8-.68,4.06-1,47.86-13.18,96.69,14.82,109,62.75,1,4,2.67,5.51,6.6,6.5,39,9.78,64.22,49.12,57,88.51-6.9,37.56-38.56,64.07-76.79,64.15q-58.21.1-116.44,0h-5.58v30.12H406.94V362ZM379.93,146.42c-.26-4.31-.62-8.45-.76-12.61C377.69,89.67,332.37,63.4,293.25,84l-13.41,7c-2.48-5.33-4.7-10.32-7.11-15.21-16.78-34-52.19-51.36-89.3-43.94-39.45,7.89-67.65,46.72-62.67,86.69,1.09,8.67,3.22,17.21,4.94,26.21-5.86,1.06-11.74,2-17.58,3.18-24.77,5-41.4,30-36.48,54.76,4.77,24,23.72,39,49.55,39q134.73,0,269.48,0a77.5,77.5,0,0,0,8.47-.53c22.77-2.51,41.16-21.74,41.92-43.78.86-25-15-45.61-38.63-49.55C395.28,146.73,387.89,146.91,379.93,146.42ZM210.64,481.79V392.37H30.25v89.42Zm271,0V392.36H301.26v89.42Z"/><path class="cls-1" d="M15.28,488.18H135.62v29.5H15.28Z"/><path class="cls-1" d="M406.77,488.36v29.33H286.29V488.36Z"/></g></g></svg>