<svg xmlns="http://www.w3.org/2000/svg" viewBox="0 0 383.31 384"><defs><style>.cls-1{fill:#fff;}</style></defs><g id="Layer_2" data-name="Layer 2"><g id="Layer_1-2" data-name="Layer 1"><path class="cls-1" d="M71.86,0h6a107,107,0,0,1,8.32,6.75c9.08,8.92,18,18,27.05,27.08L117.05,32C153.29,14.42,191.36,9,230.9,16.1c42.83,7.73,78.87,28.2,107.15,61.38,37.48,44,51.71,95,42.59,152-6.69,41.82-26.42,77.13-57.57,105.79A180.37,180.37,0,0,1,231,381.05c-6.6,1.18-13.27,2-19.9,2.95h-26.2c-5.89-.83-11.82-1.46-17.66-2.52-43.5-7.9-80.33-28.06-108.91-61.88C17.61,271.41,4.68,216,18.52,154.46c3.21-14.28,8.6-27.8,15.28-41-9.18-9.16-18.33-18.18-27.32-27.35A101.66,101.66,0,0,1,0,78V72c1.86-4.81,5.6-7.27,10.31-9q17.76-6.33,35.32-13.2a8.14,8.14,0,0,0,4.13-4.14q6.84-17.6,13.16-35.39C64.6,5.6,67.07,1.87,71.86,0ZM51,130.17a163,163,0,0,0,55.94,203c65.72,45.43,156.31,35,210.77-24.37,55-59.94,57.63-151,5.91-213.62-53-64.07-136.31-71.94-193-44.23a25.85,25.85,0,0,0,2.79,3c6.28,5,8.2,11,6,18.91-1.71,6-2.3,12.42-3.53,19.51a122.85,122.85,0,0,1,167.57,42.45c29.65,48.88,21.48,112.61-19.44,152-42.26,40.69-105.15,46.69-153.71,14.41-24-16-40.66-37.84-49.26-65.38-10.75-34.41-6.75-67.51,10.87-99.5-1.56.17-2.62.23-3.67.41C81.48,138,74.73,139.1,68,140.38a11.31,11.31,0,0,1-10.6-3.27C55.3,135,53.37,132.78,51,130.17Zm85.16-10.11a11.5,11.5,0,0,0,.85,1.13c8.37,8.4,16.81,16.74,25.09,25.24,1.71,1.75,2.78,1.07,4.44.11,20.15-11.66,40.84-12.59,61.17-1.21s31.1,29.47,31.35,53c.38,36.48-31.32,64.89-67.64,61-43.79-4.71-68.24-54.24-45.37-92.09,1.41-2.33,1.47-3.64-.57-5.61-7.89-7.65-15.57-15.51-23.34-23.28-.75-.75-1.6-1.41-2.41-2.12-31,38-30.43,98.75,11,136.77,40.35,37,103.38,34.39,140.74-5.72,38-40.77,36-103.58-4.7-142.08C227,87.64,169,92,136.13,120.06Zm28.4,60.78c-9.16,15.3-4.41,36.8,10.39,48.19a38.33,38.33,0,0,0,52.68-55c-11.42-13.86-33.24-18.16-47.44-8.78a38.16,38.16,0,0,1,3.34,2.64c7.51,7.48,15.08,14.91,22.45,22.53,6.51,6.71,3.75,16.86-5.13,19.18-4.57,1.2-8.25-.56-11.45-3.77C181.13,197.48,172.85,189.2,164.53,180.84ZM79.37,31.33c-2.75,7.34-5,13.56-7.44,19.67-1.08,2.66-.82,4.37,1.35,6.5C85.14,69.12,96.8,81,108.54,92.7c1,1,2.11,2,3.57,3.42,1.46-8.17,2.71-15.87,4.29-23.5a5,5,0,0,0-1.58-5.25q-14.38-14.22-28.6-28.61C84.05,36.56,82,34.21,79.37,31.33Zm16.5,81C94.65,111,93.75,110,92.81,109,82.17,98.35,71.17,88,61,76.88c-4.73-5.19-8.79-6.24-14.87-3-4.39,2.31-9.3,3.62-14.48,5.57,12.5,12.51,24.46,24.5,36.49,36.42a3.88,3.88,0,0,0,2.91,1C79.2,115.46,87.31,113.88,95.87,112.28Z"/></g></g></svg>