<svg xmlns="http://www.w3.org/2000/svg" viewBox="0 0 280.66 360.75"><defs><style>.cls-1{fill:#fff;}</style></defs><g id="Layer_2" data-name="Layer 2"><g id="Layer_1-2" data-name="Layer 1"><path class="cls-1" d="M196.62,295.34V283.49a3.54,3.54,0,0,0-1-.47c-8.4-.53-9-1-10.14-9.51a8.4,8.4,0,0,1-.21-1.85c.51-6.86-4.29-9-9.57-10.47a3.92,3.92,0,0,0-2.88.75c-3,2.21-5.89,4.63-8.89,6.87s-5.77,2.13-8.4-.43c-5.18-5.06-10.27-10.2-15.38-15.34-2.46-2.48-2.7-5.23-.71-8.1s4.08-6,6.32-8.82c1.25-1.6,1-2.84.45-4.69-1.59-5.69-4.91-7.65-10.89-8.05-11.12-.74-11.11-1.27-11.11-12.56,0-5.11-.07-10.23,0-15.34.09-4.32,1.69-6.1,5.84-6.88a30.7,30.7,0,0,1,4.8-.76c5.7-.13,9.44-2.39,10.8-8.32.46-2,.86-3.32-.66-5-2.35-2.58-4.38-5.44-6.55-8.18-2.3-2.92-2.16-5.73.46-8.35q7.66-7.69,15.37-15.35c2.49-2.48,5.22-2.69,8.1-.71s6,4.06,8.87,6.26c1.57,1.21,2.81,1,4.68.59,6.75-1.44,8.23-6,8.06-11.91a35.85,35.85,0,0,1,.54-4.44c.35-3.8,2.69-5.58,6.23-5.64,7.25-.14,14.5-.1,21.74,0,3.63,0,5.79,2,6.44,5.57a21.05,21.05,0,0,1,.8,5.15c-.53,6.88,3.69,9.6,9.4,11a4.48,4.48,0,0,0,3.28-.67c2.92-2.11,5.64-4.53,8.51-6.73,3.27-2.52,5.67-2.43,8.63.44q7.65,7.44,15.13,15.06c2.95,3,3.06,5.07.67,8.63a32.09,32.09,0,0,1-3.48,4.85c-3.62,3.65-4.06,7.29-1.55,11.9,1.34,2.46,2.34,3.89,5.36,3.92a74.44,74.44,0,0,1,10,1.23c3.16.47,4.9,2.36,4.92,5.57.05,7.48,0,15,0,22.45,0,3.88-2.37,5.52-5.76,6.17a82.9,82.9,0,0,1-9.59,1.56c-2.61.17-3.23,1.7-4.43,3.62-3.17,5.09-1.37,8.6,2.11,12.67,7.3,8.53,7.09,8.7-.88,16.72-3.61,3.63-7.18,7.3-10.84,10.88-3.31,3.24-5.41,3.37-9.26.72-2.68-1.84-5.41-3.62-7.92-5.66-1.83-1.5-3.33-1.11-5.42-.52-5.48,1.54-8,4.74-7.42,10.43a7.33,7.33,0,0,1-.23,1.85c-1.42,9.05-1.42,9.05-10.76,9.39-.48,0-1,.12-2,.24v4.42c0,16.34.07,32.68,0,49-.07,12.45-6.82,21.15-18.2,23.64a24.47,24.47,0,0,1-5.2.44q-80.81,0-161.6,0C9.78,360.74.2,351.19.12,337.68c-.07-11.6,0-23.2,0-34.8,0-5.77,1.74-7.52,7.65-7.53q32.61,0,65.24,0H196.62ZM135.9,212c3.93.47,7.5,1,11.09,1.3a6.6,6.6,0,0,1,6.3,4.87,106.72,106.72,0,0,0,5.25,12.32c1.47,2.92,1.39,5.41-.51,8-2.26,3.1-4.44,6.25-6.59,9.28l9,9.17c3-2.34,6-4.58,8.83-7,2.62-2.18,5.14-2.42,8.25-.83a57.65,57.65,0,0,0,11,4.52c4.14,1.13,6,3.5,6.49,7.57.39,3.43,1.09,6.82,1.68,10.32h12.9c.43-3.75,1-7.43,1.25-11.12s2-5.56,5.44-6.71A91.17,91.17,0,0,0,228,248.86c3-1.53,5.61-1.47,8.32.59,3,2.3,6.23,4.43,8.76,6.22l9.54-8.8c-2.45-3.14-4.79-6.2-7.2-9.19a6.3,6.3,0,0,1-.79-7.27c1.91-4.17,3.65-8.44,5.15-12.77,1.07-3.09,2.93-4.71,6.17-5.09a75,75,0,0,0,9.2-1.59,3.32,3.32,0,0,0,2.12-2.26c.24-3.58.1-7.17.1-10.9-4.17-.48-8-1-11.8-1.35-3.26-.34-5-2.16-6.1-5.2a96.19,96.19,0,0,0-4.89-11.67c-1.55-3-1.53-5.62.47-8.34,2.26-3.07,4.42-6.22,6.08-8.57l-9.09-9.5c-2.68,2.14-5.57,4.31-8.32,6.66s-5.22,2.27-8.28.83a102.55,102.55,0,0,0-12.08-4.91,6.81,6.81,0,0,1-5.19-6.08c-.45-3.08-.93-6.15-1.57-9.19-.17-.78-1-2-1.55-2-3.93-.18-7.88-.09-11.78-.09-.44,4.18-.83,7.77-1.21,11.36-.34,3.36-2.13,5.27-5.39,6.37A81.69,81.69,0,0,0,177,161c-3.08,1.6-5.6,1.46-8.3-.59-3-2.26-6.08-4.32-9-6.38-3.12,3.12-6.08,6.08-9.16,9.18,2.17,2.73,4.45,5.7,6.84,8.57,2.2,2.63,2.23,5.25.75,8.29a69.43,69.43,0,0,0-4.68,11.34c-1.08,3.84-3.35,5.57-7.05,6.1-3.53.51-7,1.18-10.52,1.77ZM11.37,307v28.24c0,10.22,4,14.25,14.28,14.25q78.54,0,157.08,0c1.13,0,2.26.06,3.37,0,6.36-.61,10.51-5,10.63-11.36.06-3.25,0-6.49,0-9.73V307Z"/><path class="cls-1" d="M196.73,53.87H11.37v217c0,1.25.08,2.51,0,3.74a5.53,5.53,0,0,1-5.74,5.24c-3.08-.26-5.08-1.92-5.43-5.15a27,27,0,0,1,0-3Q.1,147.82,0,24C0,11.35,8.47,2.31,18.31.42a27.36,27.36,0,0,1,5.2-.4q80.61,0,161.2,0c13.07,0,22.93,8.38,23.3,21.3.59,20.31.23,40.65.14,61a5.62,5.62,0,0,1-5.85,5.95c-3.22-.12-5.51-2.56-5.54-6.33C196.68,72.7,196.73,63.49,196.73,53.87ZM11.4,41.88H196.64c0-7.22.33-14.2-.11-21.13-.29-4.43-3.31-7.48-7.62-8.76a21.28,21.28,0,0,0-5.92-.68q-79.07,0-158.14,0c-.87,0-1.75,0-2.62,0-5.93.52-10.5,4.71-10.76,10.52C11.18,28.41,11.4,35,11.4,41.88Z"/><path class="cls-1" d="M85.5,161.58c-4.5,0-6.89-4.09-5.1-8.65,4.94-12.61,10-25.18,15-37.76,5.74-14.42,11.52-28.84,17.21-43.29,1.16-2.93,2.87-5,6.23-4.91,4.16.17,6.3,4.15,4.56,8.63-4,10.3-8.15,20.56-12.24,30.83q-9.93,24.94-19.82,49.89C90.2,159.16,88.69,161.4,85.5,161.58Z"/><path class="cls-1" d="M159.5,114.42c-7.11-6.86-13.51-12.93-19.79-19.12-3.3-3.26-3.15-7.49.16-9.56,2.75-1.73,5.28-1.11,7.45,1.06,7.66,7.67,15.34,15.33,22.9,23.1,2.8,2.88,2.71,6-.16,8.9q-11.26,11.48-22.69,22.78c-2.73,2.7-5.89,2.8-8.29.53s-2.49-5.79.34-8.56C145.83,127.29,152.39,121.17,159.5,114.42Z"/><path class="cls-1" d="M49,114.24c6.44,6.21,12.36,11.92,18.26,17.63a24.37,24.37,0,0,1,2.33,2.44,5.67,5.67,0,0,1-.38,7.79,5.47,5.47,0,0,1-7.77,0c-2.78-2.51-5.34-5.25-8-7.91Q46,126.77,38.69,119.3c-3.61-3.69-3.64-6.36-.1-10Q49.36,98.41,60.21,87.52c3.36-3.37,6.45-3.68,9.11-1,2.51,2.55,2.16,5.86-1.18,9.13C62,101.7,55.78,107.66,49,114.24Z"/><path class="cls-1" d="M202.56,175a30,30,0,0,1,30,29.93,30,30,0,1,1-60-.09A29.69,29.69,0,0,1,202.56,175Zm-6,47.27c.06-1.27.13-2.25.14-3.24,0-5.61-.05-11.22,0-16.83.05-4,2.24-6.6,5.53-6.75s5.82,2.53,6,6.68c.09,2.36,0,4.74,0,7.1v13c9.36-3.31,14-11.51,12.39-21-1.42-8.39-9.31-14.92-18.08-14.94-9.4,0-17.06,6.65-18.59,16.2C182.7,210.77,188,219.29,196.6,222.28Z"/><path class="cls-1" d="M104,336c-8,0-16,0-23.94,0-4.64,0-7.16-2.08-7.17-5.75s2.43-5.74,7.16-5.76q23.94-.09,47.88,0c4.94,0,7.47,2.16,7.36,5.95-.1,3.58-2.67,5.56-7.36,5.57C120,336,112,336,104,336Z"/><path class="cls-1" d="M118.31,32.46c-4.48,0-9,.09-13.45,0-4-.11-6.47-2.39-6.42-5.74S101,21.07,105,21q13.45-.11,26.91,0c3.94,0,6.55,2.34,6.63,5.6s-2.36,5.69-6.38,5.8C127.53,32.56,122.92,32.46,118.31,32.46Z"/></g></g></svg>