<svg xmlns="http://www.w3.org/2000/svg" viewBox="0 0 408.77 408.85"><defs><style>.cls-1{fill:#fff;}</style></defs><g id="Layer_2" data-name="Layer 2"><g id="Layer_1-2" data-name="Layer 1"><path class="cls-1" d="M0,400.82c1.89-3.26,4.75-4.11,8.41-4.06,12,.16,23.9.06,36.34.06V264.92c0-7.16,1.8-9,8.91-9q29.15,0,58.29,0c7.13,0,8.86,1.79,8.86,9q0,63.07,0,126.15v5.42h45.41V233.91c0-8.36,1.68-10,10-10q28.35,0,56.69,0c7.8,0,9.62,1.84,9.62,9.66v163H288V163.94c0-9.21,1.32-10.5,10.66-10.51h56.29c7.25,0,9.12,1.91,9.12,9.25V396.82h4.38c10.91,0,21.83,0,32.74,0,4.93,0,7.69,2.28,7.59,6.13s-2.74,5.82-7.51,5.82q-196.81,0-393.63.07a8.33,8.33,0,0,1-7.62-4ZM300.4,166v230.5h51.35V166ZM230,396.62V236.43H178.8V396.62Zm-121.57.08V268.5H57.11V396.7Z"/><path class="cls-1" d="M380.86,0c7.17,2.44,12.72,6.59,14.55,14.38A29,29,0,0,1,396,20.7c0,15.7-.32,31.41.13,47.1.36,12.69-8.64,20-16.28,20.78-11.09,1.14-19-5-21.6-17-.85.78-1.62,1.38-2.26,2.1A486.34,486.34,0,0,1,293.5,132.3a22.56,22.56,0,0,1-2.57,1.88c-2.89,1.65-5.64,1.47-7.91-1.09a5.81,5.81,0,0,1,.64-8.25c4.48-4,9.19-7.66,13.8-11.48a475.6,475.6,0,0,0,60.78-61,11.79,11.79,0,0,1,4.23-3.47c4-1.57,7.77,1.23,7.93,5.74s0,9.31.06,14c.07,4.83,2.61,7.88,6.54,8s7-3,7-8q.12-24.15,0-48.3c0-6.17-3.44-8.74-9.61-8q-23.52,3-47.06,5.88c-5.42.66-8.57,3.74-7.91,8s4.38,6.15,9.54,5.4,10.27-1.36,15.41-2c3.2-.39,6.11-.1,7.8,3.29,1.62,3.23,0,5.54-1.89,7.91a451.21,451.21,0,0,1-72.55,71.07c-52.08,40.55-110.32,68.53-174.08,85.22-24.44,6.4-49.17,11.21-74.43,13-1.46.1-2.91.32-4.36.54-3.87.57-6.53,3.47-6.34,6.89.2,3.74,3.13,6.49,7.36,6.17C35.41,223,45,222.33,54.43,221A501.68,501.68,0,0,0,176.37,186.8a475.77,475.77,0,0,0,78.69-41.86c1.44-1,2.85-2,4.36-2.79,3.5-1.93,6.93-1.19,8.73,1.79s1,6.11-2.16,8.32c-4.37,3-8.85,5.9-13.36,8.71A510.33,510.33,0,0,1,80.54,228.69c-17.67,3.51-35.72,5.2-53.65,7.29-10,1.17-19.16-6.48-20.37-16.21-1.27-10.26,5.45-19.53,15.7-21C34.84,197,47.6,196.12,60.16,194a472.49,472.49,0,0,0,132.77-43.11A447.11,447.11,0,0,0,318.87,58.27c4.26-4.48,8.32-9.16,13-14.37h-5.09C316.45,44,308,36.74,307.38,27.21c-.76-10.91,6.19-19.43,17-20.79,15.16-1.91,30.32-3.76,45.48-5.67a11.43,11.43,0,0,0,2.2-.75Z"/></g></g></svg>