<svg xmlns="http://www.w3.org/2000/svg" viewBox="0 0 383.34 383.1"><defs><style>.cls-1{fill:#fff;}</style></defs><g id="Layer_2" data-name="Layer 2"><g id="Layer_1-2" data-name="Layer 1"><path class="cls-1" d="M327.93,0c1.53.5,3.08,1,4.59,1.49A25.61,25.61,0,0,1,327.83,51c-12.06,1.68-23.38-4.63-27.53-15.85-1.2-3.22-2.72-4-5.9-3.89-6,.26-12,.12-18,.06-2,0-3.36.43-3.35,2.85q.07,34.8.1,69.61c0,.22.18.43.45,1.06,7.78,0,15.73.09,23.67-.14.88,0,2-1.78,2.5-2.95,3.95-9.58,10.9-15.42,21.22-16.67,9.7-1.18,17.75,2.34,23.52,10.18,6.34,8.62,7,18.08,1.92,27.46s-13.47,14-24.12,13.33-18.33-6.32-22.13-16.34c-1.19-3.14-2.7-3.77-5.65-3.69-7,.18-13.93.06-21.23.06-.09,1.44-.24,2.64-.24,3.83,0,21.71.07,43.42-.08,65.12,0,3.61,1,4.82,4.66,4.67,6-.26,12-.17,18,0,2.34.06,3.41-.62,4.26-3A25.46,25.46,0,0,1,328.39,170a25.69,25.69,0,0,1,.74,50.47,25.25,25.25,0,0,1-28.9-15.86c-1.14-3.13-2.68-3.82-5.65-3.72-6,.19-12,.09-18,0-9.77-.09-14.75-5.05-14.76-14.77q0-33.32,0-66.62c0-1-.11-2-.18-3.19H228.56c-.88,7.28-5.4,11.11-12.5,11.21-6.75.09-10.12,2.86-11.47,9.53-.82,4-3.14,7.84-5.18,11.54-1.16,2.11-1.06,3.52.45,5.3a75.13,75.13,0,0,1,5.11,6.91c3.29,4.91,2.94,10.08-1.05,14.39-2.63,2.83-5.37,5.57-8.21,8.19-4.25,3.93-9.52,4.24-14.4,1-1.66-1.11-3.23-2.35-4.84-3.52L172.55,178c-7.42,2.88-14.39,5.49-21.26,8.33a4.58,4.58,0,0,0-2.14,2.92c-.69,3-.9,6.16-1.52,9.21-1.16,5.67-4.8,9-10.58,9.33a97.56,97.56,0,0,1-12,0c-5.92-.35-9.52-3.68-10.74-9.62-.77-3.76-.29-8.47-2.43-11.07-2-2.45-6.79-2.52-10.22-4-3.9-1.63-7.65-3.61-11.69-5.55-2.85,2.1-5.82,4.37-8.88,6.51-5.29,3.7-10.63,3.3-15.28-1.14-2.61-2.5-5.19-5.05-7.65-7.69-4-4.35-4.44-9.46-1.16-14.37,2.14-3.21,5.95-6.16,6.26-9.49s-2.92-6.88-4.44-10.41a33.86,33.86,0,0,1-2.71-7.73c-.59-3.66-2.61-4.89-6-5.1a58,58,0,0,1-7-1,11,11,0,0,1-9.42-10.92c-.11-3.62-.08-7.24,0-10.86C33.79,99,37.3,94,43.55,93.89,52,93.68,56.61,90.45,58.15,82c.62-3.43,2.74-6.67,4.56-9.77a3.75,3.75,0,0,0-.39-5C60.43,64.94,58.65,62.52,57,60c-3.18-4.77-2.87-9.84,1-14.08,2.68-3,5.51-5.78,8.46-8.47,4.23-3.85,9.29-4.18,14.07-1,3.3,2.22,6.46,4.65,9,6.48,7.41-2.86,14.28-5.41,21-8.22a5,5,0,0,0,2.37-3.14c.75-3.14.95-6.41,1.62-9.57a10.4,10.4,0,0,1,10.22-8.73c4.23-.18,8.49-.19,12.72,0a10.42,10.42,0,0,1,10,8.51,91.26,91.26,0,0,1,1.51,9.6c.22,2,1,2.92,3,3.65,6,2.28,11.92,5,17.94,7.28a4.94,4.94,0,0,0,3.84-.33c2.76-1.68,5.22-3.85,7.92-5.64,4.63-3,9.65-2.75,13.77,1a115.84,115.84,0,0,1,8.73,8.72c3.72,4.14,4,9.08,1,13.78a90.41,90.41,0,0,1-5.53,7.53c-1.28,1.58-1.25,2.8-.39,4.67,2.65,5.75,4.85,11.71,7.45,17.49a5.76,5.76,0,0,0,3.17,2.75,41.56,41.56,0,0,0,7,1.2c7.35,1,10.14,3.65,11.76,11.16h33.26v-4.44q0-32.39,0-64.75c0-10.54,4.79-15.34,15.27-15.35,6.36,0,12.73.06,19.09-.06,1,0,2.77-.62,3-1.32C302.35,8.41,309.76,2.85,319.7,0ZM73.55,175.71l11.23-8.24c4.37-3.2,5.43-3,10.09-.52,5.71,3,11.49,6.71,17.64,7.78,8.52,1.49,11.27,5.83,11.84,13.72.63,8.71,1.05,8.68,9.7,8.23.12,0,.29,0,.36,0,.87-.78,2.29-1.45,2.48-2.38.81-3.9,1.29-7.86,1.81-11.81.46-3.53,2.28-5.6,5.85-6.28a62.67,62.67,0,0,0,23.32-9.63c3-2,5.68-2,8.55.25,3.72,2.89,7.58,5.6,11.06,8.14l8.38-7.55c-2.88-3.9-5.53-7.67-8.36-11.28-2.31-2.95-2.49-5.73-.36-8.87a63.18,63.18,0,0,0,9.65-23.32c.72-3.62,2.76-5.29,6.32-5.73,4.64-.58,9.26-1.42,13.79-2.14V104.9c-4.76-.75-9.3-1.58-13.87-2.14-3.6-.43-5.54-2.19-6.26-5.78a64,64,0,0,0-9.66-23.32c-2-3-2-5.69.23-8.55,2.88-3.73,5.62-7.57,8.33-11.25l-7.88-8.07c-3.78,2.79-7.54,5.44-11.15,8.28-3,2.31-5.58,2.17-8.9.39-5.9-3.15-11.88-7-18.26-8.18-8.48-1.59-11.24-5.9-11.78-13.77-.61-8.65-1-8.7-9.85-7.95A3.9,3.9,0,0,0,125.14,27c-.83,3.76-1.29,7.61-1.77,11.44s-2.44,5.76-6.14,6.46a59.54,59.54,0,0,0-22.64,9.33c-3.42,2.33-6.32,2.18-9.49-.37-3.55-2.85-7.31-5.45-10.71-8l-8.17,7.7c2.89,3.94,5.63,7.79,8.5,11.53,2.07,2.71,2.35,5.36.41,8.24a65.58,65.58,0,0,0-9.95,24c-.65,3.23-2.53,4.9-5.82,5.34-4.77.64-9.51,1.5-14.22,2.26v11.15c4.74.73,9.28,1.54,13.84,2.11,3.58.44,5.57,2.17,6.28,5.77a63.54,63.54,0,0,0,9.66,23.32c2.14,3.15,1.9,5.93-.41,8.87-2.83,3.6-5.45,7.37-8.26,11.19,1,1.07,1.9,1.93,2.7,2.87C70.49,172,72,173.84,73.55,175.71ZM338.41,25.6A14.41,14.41,0,1,0,324,40.14,14.45,14.45,0,0,0,338.41,25.6Zm0,84.95A14.41,14.41,0,1,0,323.87,125,14.53,14.53,0,0,0,338.41,110.55Zm-14.55,99.13a14.35,14.35,0,1,0-14.27-14.59A14.36,14.36,0,0,0,323.86,209.68Z"/><path class="cls-1" d="M383.34,283.71c-2.19,8.64-8,13.8-15.74,17.82-16.23,8.48-32.22,17.41-48.28,26.23-3,1.66-5.85,2.33-8.34-.74s-1.51-6.73,2.47-8.91q22-12,44-24c3-1.61,5.94-3.17,8.85-4.85,5.36-3.08,7.27-9,4.59-14-2.78-5.23-8.9-7-14.49-3.88-17.79,9.79-35.39,19.94-53.33,29.45-35.47,18.81-73.22,25.15-113,19.83-11.36-1.53-22.78-2.64-34.15-4.15-2.1-.28-4.57-1-6-2.43-3.28-3.3-.85-8.33,4.35-9.07,8.76-1.25,17.56-2.24,26.34-3.35q33.39-4.2,66.78-8.44c5.67-.72,9-3.76,9.55-8.42.56-4.41-1.44-8.51-5.45-10.06a18.51,18.51,0,0,0-6.57-1c-23.2-.07-46.4,0-69.61-.09a21.4,21.4,0,0,1-6.91-1.19c-23.63-8.33-47.46-9.79-71.55-2.16-2.67.85-5.14,1.18-7.29-1-3-3.07-1.62-8.21,3-9.35,8.44-2.1,16.94-4.34,25.55-5.29,17.59-1.94,34.8.6,51.57,6.27a7.43,7.43,0,0,0,5.15-.61c22.12-11.48,44.43-22.61,66.13-34.84,14.38-8.09,29.9-1.8,32.66,15,3-1.61,6-3.18,8.9-4.73,12.91-6.8,26.13-.49,29.06,13.86a10.46,10.46,0,0,0,.53,1.36c3.71-1.92,7.45-3.58,10.91-5.7,14.11-8.64,29.27.94,30.51,13.81,0,.21.27.4.31.44,3.17-.34,6.27-1.11,9.31-.92,9.38.57,16.59,6.56,19.39,15.59.22.69.54,1.35.82,2Zm-180,26.43v.45c1.71.15,3.42.36,5.13.44a171.67,171.67,0,0,0,70-11.29c20.7-7.93,39.16-20.19,58.62-30.53,5-2.66,6.59-7.25,4.38-11.54s-7.1-5.6-12.22-2.91q-29.44,15.48-58.83,31.06a5.09,5.09,0,0,0-2.45,2.46c-3.32,10.92-11.11,15.4-22,16.51C231.7,306.24,217.53,308.32,203.32,310.14Zm-7.16-48a16.6,16.6,0,0,0,2,.33q16.63,0,33.25,0A5.46,5.46,0,0,0,234,262c8.11-4.35,16.27-8.62,24.23-13.22,3.33-1.92,4.47-5.37,3.61-9.1s-3.48-6.24-7.29-6.48a13.54,13.54,0,0,0-6.67,1.72c-16.14,8.33-32.2,16.8-48.27,25.24C198.63,260.63,197.74,261.22,196.16,262.15Zm71.53,12.3c9-4.75,18.78-9.7,28.29-15.07,1.9-1.07,3.46-3.56,4.19-5.72,1-3.06-.31-5.91-3-7.84a7.7,7.7,0,0,0-8.77-.46Q272.2,254.15,256,263c-.27.15-.38.58-.13.17Z"/><path class="cls-1" d="M11.42,297.16v63c1.48,0,2.81,0,4.14,0,30.9-1.15,61.48,2.93,92.15,5.57,23.11,2,46.19,4.39,69.31,6.06,18.95,1.36,37.08-3.25,54-11.1C251,351.53,270.2,341,289.72,331.05c.88-.45,1.72-1,2.62-1.44,3.37-1.62,6.47-.77,8,2.17s.66,5.83-2.56,7.6c-25.86,14.21-51.24,29.42-79.73,38.13A129.62,129.62,0,0,1,166,382.33c-23.93-2.49-47.92-4.39-71.89-6.54-13.78-1.24-27.55-2.9-41.36-3.61-14.18-.72-28.42-.51-42.63-.7-1.24,0-2.49,0-3.74,0-4.2-.18-6.29-2.11-6.29-6.22q-.08-36.48,0-73c0-4.33,2.11-6.34,6.52-6.36,11.6-.06,23.2.06,34.8-.11A11.29,11.29,0,0,0,46.76,284c7.55-4.6,14.92-9.49,22.49-14,3.72-2.25,7-1.33,8.61,1.85s.3,5.75-3.26,8c-8.08,5.14-16,10.49-24.18,15.54a12.14,12.14,0,0,1-5.9,1.71c-9.73.17-19.46.08-29.19.08Z"/><path class="cls-1" d="M130.89,152.78C107.4,152.74,88,133,88.7,109.89c.73-24.44,20.8-43.06,44.9-41.66,23.54,1.38,41.74,22.21,39.42,45.68-.53,5.34-2.47,10.62-4.36,15.71-1.44,3.91-4.67,5.06-7.73,3.67-3.23-1.47-4.05-4.6-2.25-8.58,8.43-18.66-.3-38.7-19.21-44.06a31,31,0,1,0,2.22,59c1.05-.38,2.06-.9,3.13-1.22,3.2-.92,6.05.36,7.12,3.13s.07,6.1-3,7.14c-5.83,2-11.85,3.4-17.79,5.06Z"/></g></g></svg>