<svg xmlns="http://www.w3.org/2000/svg" viewBox="0 0 435.07 512"><defs><style>.cls-1{fill:#fff;}</style></defs><g id="Layer_2" data-name="Layer 2"><g id="Layer_1-2" data-name="Layer 1"><path class="cls-1" d="M211.85,0h12C234,2.84,241.4,9.68,249,16.49a195,195,0,0,0,96.2,47.71c14.52,2.71,29.33,3.91,44,5.82,23.8,3.1,45.24,26.08,45.52,49.83.4,33.48.6,67,0,100.44a398.82,398.82,0,0,1-12,89.36c-19,76.43-62.6,134.21-131.41,172.82A382.21,382.21,0,0,1,223.85,512h-12c-29.48-9.71-57.54-22.44-83.7-39.24-54.41-34.94-91-83.43-110.26-145.08C5.67,288.6,1.21,248.31.24,207.65c-.68-28.62.25-57.29.68-85.93C1.3,96,22,73.19,47.63,69.94c11.22-1.42,22.52-2.24,33.69-4,39.76-6.16,75-22.21,105.07-49.14C194.09,9.94,201.57,2.9,211.85,0Zm6,128.64c-70.41.1-127.41,57.16-127.31,127.42.11,70.43,57.12,127.39,127.41,127.3S345.3,326.24,345.21,256,288.05,128.54,217.8,128.64Z"/><path class="cls-1" d="M222,353.46c-50.25,2.26-95.19-34.72-101-86.2a97.33,97.33,0,0,1,85.5-108.13c57.38-6.41,102.82,35.74,108.32,85.86C321.12,302.7,277,351.33,222,353.46Zm-25.78-77.85a10.11,10.11,0,0,1-1.41-.54c-5.11-5-10.15-10.08-15.34-15-6.54-6.22-15.56-6.32-21.48-.39s-5.82,15,.46,21.48Q171.2,294.21,184.25,307c6.76,6.58,15.12,6.81,21.8.2q35-34.63,69.61-69.6a14.09,14.09,0,0,0,3.69-14.73c-3.41-11.34-16.67-14.27-25.53-5.51q-23.64,23.35-47,47C203.08,268.06,199.56,272,196.23,275.61Z"/></g></g></svg>