<svg xmlns="http://www.w3.org/2000/svg" viewBox="0 0 345.33 383.23"><defs><style>.cls-1{fill:#fff;}</style></defs><g id="Layer_2" data-name="Layer 2"><g id="Layer_1-2" data-name="Layer 1"><path class="cls-1" d="M174.91,0c4.07,2,5.37,5.27,5.31,9.77-.2,15.58-.05,31.17-.1,46.76,0,4.16-2.5,7.17-6.16,7.76a7.42,7.42,0,0,1-8.33-4.84,13,13,0,0,1-.44-4c0-15.22.11-30.43-.1-45.65C165,5.27,166.33,2,170.41,0Z"/><path class="cls-1" d="M164.76,296.43c-26.57-.14-57.88-10.76-86.84-28.69-29.86-18.5-54.86-42.33-75.59-70.63-3.07-4.2-3.12-6.77-.06-10.88,27.55-36.93,61-66.82,103.78-85.23,46.69-20.09,93.23-18.89,139.12,2.56,40,18.73,71.78,47.5,97.92,82.73,2.87,3.85,3,6.66.29,10.28-30.43,40.7-67.58,72.88-116.11,90.37C209.65,293.29,191.4,296.46,164.76,296.43Zm7.73-15a157.71,157.71,0,0,0,67.85-16.15c34.57-16.64,62.36-41.46,86.15-71.13,1.78-2.22,1.16-3.57-.3-5.41-17.08-21.41-36.52-40.29-59.3-55.62-23.82-16-49.62-27.12-78.38-30.41-29.21-3.33-56.86,2.53-83.19,15.08-34.74,16.57-62.62,41.5-86.48,71.27-1.78,2.22-1.18,3.56.29,5.4,18.68,23.39,40.1,43.77,65.59,59.68C111.57,270.92,140.5,281.12,172.49,281.45Z"/><path class="cls-1" d="M180.14,351c0,8,0,15.94,0,23.91,0,5.14-2.94,8.35-7.49,8.34s-7.45-3.21-7.46-8.38q0-23.89,0-47.8c0-4.91,2.9-8.07,7.3-8.15,4.59-.09,7.63,3.1,7.65,8.18C180.17,335.05,180.14,343,180.14,351Z"/><path class="cls-1" d="M69.79,95.21c0,6.48-5.76,10.21-10.61,8a9.85,9.85,0,0,1-2.74-1.91C46.09,91,35.71,80.73,25.47,70.34c-4.6-4.68-3-11.65,3.07-12.83a9.58,9.58,0,0,1,7.35,2.13c10.65,10.15,21,20.62,31.32,31.11C68.6,92.16,69.28,94.29,69.79,95.21Z"/><path class="cls-1" d="M323.52,64.13c-1.6,2.68-2.4,4.87-3.88,6.38Q304.43,86,289,101.19c-3.66,3.62-8.06,3.64-11.25.32s-3-7.4.56-11q15.4-15.54,31-30.92c2.51-2.48,5.71-3.76,8.8-1.72C320.2,59.33,321.62,61.89,323.52,64.13Z"/><path class="cls-1" d="M29.45,334.52c-2-1.8-4.45-3.31-5.86-5.5-1.93-3-.64-6.06,1.71-8.46,4.61-4.73,9.33-9.36,14-14,5.65-5.63,11.25-11.32,17-16.89,3.85-3.75,8.36-3.76,11.52-.24,2.61,2.91,2.95,6.88.06,9.84-10.71,11-21.6,21.77-32.55,32.51C34.07,333,32,333.33,29.45,334.52Z"/><path class="cls-1" d="M313.94,333.86c-1.26-.76-3.43-1.58-4.95-3.06q-15.36-15-30.48-30.35c-3.75-3.77-4-8-.8-11.24s7.63-3.25,11.52.61q15.28,15.12,30.46,30.37c2.46,2.47,3.69,5.32,2.18,8.8C320.54,332.06,318.07,333.45,313.94,333.86Z"/><path class="cls-1" d="M240.39,191.89a67.9,67.9,0,0,1-73.8,67c-39.06-3.49-67.45-40.37-60.57-78.65.8-4.44,4.36-7.48,8.27-7.06,4.5.48,7.37,4,6.63,9.08-1.68,11.44-.38,22.37,4.82,32.71a52.46,52.46,0,0,0,98.52-13.86c6.56-34.37-23.11-65.86-57.76-61.25a95.19,95.19,0,0,0-12,2.69c-5.12,1.36-8.91-.17-10.39-4.48s.62-8,5.53-9.85c39.18-14.93,84.41,12.1,89.77,53.68C239.85,185.19,240.07,188.55,240.39,191.89Z"/><path class="cls-1" d="M202.64,191.49a30,30,0,1,1-30.12-29.79A29.84,29.84,0,0,1,202.64,191.49Zm-29.86,15.1a15,15,0,1,0-15.12-14.94A15.29,15.29,0,0,0,172.78,206.59Z"/><path class="cls-1" d="M120.18,154.3a7.48,7.48,0,1,1,7.67,7.36A7.36,7.36,0,0,1,120.18,154.3Z"/></g></g></svg>