<svg xmlns="http://www.w3.org/2000/svg" viewBox="0 0 409.6 395.53"><defs><style>.cls-1{fill:#fff;}</style></defs><g id="Layer_2" data-name="Layer 2"><g id="Layer_1-2" data-name="Layer 1"><path class="cls-1" d="M409.6,22.1V291.18a3.09,3.09,0,0,0-.47.64c-5.85,16.33-13.57,21.75-31,21.75H246.36a55,55,0,0,0,5,23.52c4.42,9.6,11.81,15.7,22.63,16.63,6.36.54,12.77.44,19.16.64,13.65.45,22.82,11.54,20.42,24.7-1.83,10.05-10.62,16.45-22.79,16.45q-86,0-172,0a32.48,32.48,0,0,1-8.29-1c-9.39-2.52-15.93-11.92-14.87-21,1.3-11.12,9-18.55,20-19.1,5-.25,10.13,0,15.19-.16,8.1-.22,15.56-2.25,21.36-8.34,8.52-9,10.25-20.24,11.24-32.35H153.06c-41.19,0-82.39-.07-123.59.05-8.13,0-15.67-1.77-21-7.84-3.64-4.15-5.69-9.68-8.46-14.6V22.1a6.19,6.19,0,0,0,.81-1.27C5.6,6.87,14.76,0,29.43,0Q204.8,0,380.17,0c7.53,0,14.41,2,20.26,7C405.13,11.12,407.35,16.59,409.6,22.1ZM368.43,41.42H41.17V244.76H368.43Zm27.5,218.12h-382a7.15,7.15,0,0,0-.22,1.08q0,11,0,21.95C13.63,295.05,18.56,300,31,300H378.58c1.2,0,2.41,0,3.6,0,7.81-.44,13.38-5.6,13.67-13.41C396.18,277.65,395.93,268.74,395.93,259.54Zm0-14.62v-3.66q0-105.78.07-211.56c0-8.51-5-15.87-16.18-15.85q-175,.28-349.94,0c-11.38,0-16.4,7.32-16.38,16.48q.24,105.18.09,210.36v4.18H27.24V37.53c0-8.12,2-10.18,10.1-10.18H372.09c8.32,0,10.27,2,10.27,10.42V244.92ZM163.5,354h82.67c-10-11.91-12.68-25.89-14.09-40.15H177.45C176.2,328.27,173.33,342.06,163.5,354Zm41.12,27.59h86.79c5.8,0,8.6-2.13,8.7-6.47s-2.81-6.85-8.76-6.88c-4.52,0-9.05.25-13.58.24q-75.78-.1-151.57-.25a104,104,0,0,0-11.17.34c-3.74.4-5.81,3.3-5.52,7,.31,4,3,6,8.32,6Q161.23,381.58,204.62,381.56Z"/><path class="cls-1" d="M309.56,184.46c5.5,5.41,10.48,10.22,15.35,15.13,4.46,4.49,4.45,7.81,0,12.32q-8.27,8.39-16.68,16.65c-4.53,4.45-7.8,4.44-12.31,0-5-4.94-9.94-9.94-15.35-15.36-3.11,3.27-5.84,6.34-8.79,9.19-4.72,4.55-10.39,3.12-12.39-3.13-1.9-5.93-3.78-11.89-5.3-17.93-.73-2.91-2.07-3.64-5-3.63q-75.57.12-151.14,0a14.35,14.35,0,0,1-6.1-1.23c-2.86-1.39-3.16-4.27-3.15-7.21q.07-28.33,0-56.67,0-34.32,0-68.64c0-7.33,2.06-9.44,9.51-9.44q93,0,185.93,0c7.3,0,9.41,2.24,9.41,9.54,0,29.66.07,59.33-.1,89,0,3.32,1,4.65,4.09,5.44,5.79,1.49,11.5,3.27,17.21,5.05,6.72,2.1,8.12,7.73,3.18,12.78C315.37,179,312.64,181.48,309.56,184.46Zm-29.91-31.63V102.74H102.71v81.2h145.9c-3-10-5.82-19.79-8.77-29.51-1-3.3-1.71-6.45,1.1-9.23s5.95-2.08,9.27-1.07C259.94,147.08,269.72,149.9,279.65,152.83ZM102.58,68.6V88.35h177V68.6ZM311.66,205.45c-4.92-4.81-9.62-9.32-14.23-13.92-5.17-5.15-5.21-8.89-.1-13.95a21.19,21.19,0,0,1,4-2.53l-1-1.46-44-13,13.26,44.47c1.12-1.06,1.71-1.59,2.27-2.14,7.18-7,10.83-7,18,.23,4,4,7.87,8.14,11.7,12.13Z"/><path class="cls-1" d="M204.79,272.75c6.52,0,13.05-.06,19.57,0,4.85.06,7.64,2.61,7.65,6.75s-2.89,6.8-7.63,6.82q-19.57.11-39.14,0c-4.75,0-7.65-2.72-7.65-6.8s2.79-6.71,7.63-6.77C191.75,272.69,198.27,272.75,204.79,272.75Z"/><path class="cls-1" d="M150.17,170.58c-8.52,0-17,0-25.57,0-6,0-8.54-2.51-8.57-8.45Q116,150,116,137.79c0-5.51,2.41-8.15,8-8.19q26.17-.18,52.34,0c5.36,0,7.9,2.52,8,7.83.2,8.5.21,17,0,25.52-.15,5.25-2.88,7.57-8.22,7.61C167.49,170.62,158.83,170.58,150.17,170.58ZM130,143.6v13.06H170.2V143.6Z"/></g></g></svg>