<svg xmlns="http://www.w3.org/2000/svg" viewBox="0 0 408.81 311.52"><defs><style>.cls-1{fill:#fff;}</style></defs><g id="Layer_2" data-name="Layer 2"><g id="Layer_1-2" data-name="Layer 1"><path class="cls-1" d="M408.81,31.15V280.26a8.48,8.48,0,0,0-.57,1.46c-3.23,17.94-19.23,30-37.86,29.79-32.86-.44-65.72-.12-98.58-.12q-117.35,0-234.68,0c-20.94,0-37-15.27-37-35.73Q-.11,155.7.19,35.77a36.28,36.28,0,0,1,3.6-15.3C10.61,6.46,22.38,0,37.92,0Q199,.06,360,0c4.52,0,9.05-.08,13.57,0a35.8,35.8,0,0,1,22,8.12C403,14.13,406.69,22.18,408.81,31.15Zm-367.53-7L204.39,185.82,366.12,24.16Zm.74,263H366.35L252.63,173.39c-.75.72-1.82,1.68-2.83,2.7q-17.37,17.34-34.74,34.7c-6.62,6.59-13.09,6.57-19.78-.06Q177.4,193,159.57,175.31c-1-1-2.08-2-2.95-2.79Zm-17.91-18,114.5-114.51L24.11,41ZM384.54,269V42.37L271.21,155.69Q327.65,212.15,384.54,269Z"/></g></g></svg>