<?xml version="1.0" encoding="utf-8"?>
<!-- Generator: Adobe Illustrator 25.2.0, SVG Export Plug-In . SVG Version: 6.00 Build 0)  -->
<svg version="1.1" id="Layer_1" xmlns="http://www.w3.org/2000/svg" xmlns:xlink="http://www.w3.org/1999/xlink" x="0px" y="0px"
	 viewBox="0 0 1539.2 1213.56" style="enable-background:new 0 0 1539.2 1213.56;" xml:space="preserve">
<style type="text/css">
	.st0{display:none;fill:url(#SVGID_1_);}
	.st1{fill:url(#SVGID_2_);}
	.st2{fill:url(#SVGID_3_);}
	.st3{fill:url(#SVGID_4_);}
	.st4{display:none;fill:url(#SVGID_5_);}
	.st5{fill:url(#SVGID_6_);}
	.st6{display:none;fill:#F2C745;}
	.st7{fill:#27316E;}
	.st8{fill:#D88527;}
	.st9{fill:#C93132;}
	.st10{fill:#F2C745;}
	.st11{fill:#508F5E;}
</style>
<g>
	<g>
		<g>
			<g>
				<linearGradient id="SVGID_1_" gradientUnits="userSpaceOnUse" x1="443.743" y1="660.9858" x2="1449.1703" y2="660.9858">
					<stop  offset="2.577728e-04" style="stop-color:#1E91D0"/>
					<stop  offset="0.1268" style="stop-color:#1E8DCB"/>
					<stop  offset="0.3221" style="stop-color:#1C80C0"/>
					<stop  offset="0.5617" style="stop-color:#156DB0"/>
					<stop  offset="0.8342" style="stop-color:#0A549D"/>
					<stop  offset="0.8996" style="stop-color:#0D4D98"/>
				</linearGradient>
				<path class="st0" d="M1449.17,637.06v547.3h-22.05c-1.42-1.19-3.18-0.8-4.78-0.93c-8.85-0.74-17.56-2.33-26.09-4.75
					c-27.92-7.93-51.41-23.1-71.28-44.04c-19.45-20.51-33.31-44.42-42.62-71.05c-1.71-4.9-2.98-9.92-4.71-14.8
					c-0.15-0.69-0.25-1.41-0.43-2.1c-4.46-17.42-6.97-35.14-6.99-53.09c-0.15-105.76-0.13-211.52-0.17-317.28
					c0.07-5.27,0.15-10.53,0.21-15.8c-0.03-0.63-0.09-1.25-0.09-1.88c-0.07-20.83-2.1-41.47-5.93-61.93
					c-6.49-34.57-18.04-67.35-34.71-98.31c-21.01-39.03-48.64-72.71-82.56-101.21c-32.42-27.26-68.69-47.81-108.77-61.58
					c-25.59-8.8-51.87-14.42-78.83-16.94c-16.7-1.56-33.42-1.93-50.18-1.13c-18.64,0.87-37.08,3.28-55.34,7.17
					c-30.21,6.43-59.01,16.79-86.38,31.09c-34.28,17.91-64.65,41.03-91.22,69.14c-24.94,26.38-45.33,55.88-60.84,88.7
					c-13.51,28.6-22.83,58.08-28,88.4L443.74,458.34c13.11-31.28,29.2-61.13,48.29-89.47c22.45-33.36,48.47-63.68,77.88-91.08
					c39.36-36.64,83.31-66.55,131.91-89.61c31.54-14.96,64.22-26.71,98.11-35.11c21.58-5.34,43.39-9.31,65.47-11.83
					c14.33-1.64,28.69-2.79,43.11-3.18c2.02-0.04,4.11,0.43,6.09-0.45h23.66c0.49,0.54,1.15,0.39,1.76,0.39
					c18.83,0.27,37.54,1.9,56.21,4.35c21.68,2.83,43.09,7.08,64.22,12.69c37.33,9.9,73.13,23.79,107.4,41.61
					c54.74,28.48,102.84,65.61,144.55,111.05c34.7,37.8,63.19,79.82,85.46,126.05c16.2,33.64,28.73,68.61,37.41,104.96
					c4.45,18.64,7.93,37.45,10.23,56.49c1.56,12.88,2.99,25.78,3.2,38.79C1448.73,635,1448.4,636.13,1449.17,637.06z"/>
				<linearGradient id="SVGID_2_" gradientUnits="userSpaceOnUse" x1="303.7859" y1="795.4929" x2="1208.5493" y2="795.4929">
					<stop  offset="2.577728e-04" style="stop-color:#1E91D0"/>
					<stop  offset="0.1268" style="stop-color:#1E8DCB"/>
					<stop  offset="0.3221" style="stop-color:#1C80C0"/>
					<stop  offset="0.5617" style="stop-color:#156DB0"/>
					<stop  offset="0.8342" style="stop-color:#0A549D"/>
					<stop  offset="0.8996" style="stop-color:#0D4D98"/>
				</linearGradient>
				<path class="st1" d="M1208.54,1005.82c0.01,4.82,0.02,9.65,0,14.49c-0.04,8.15-0.89,16.24-2.42,24.26
					c-5.04,26.36-16.85,49.42-34.13,69.82c-3.99,4.72-8.45,9-12.67,13.49c-0.56,0.45-1.14,0.88-1.65,1.36
					c-19.23,17.63-41.25,30.62-65.67,39.64c-21.48,7.94-43.69,12.03-66.49,13.33c-2.19,0.12-4.44-0.33-6.56,0.53H927.1l-0.13-0.08
					l0.03-0.14c-2.39,0.63-4.75-0.14-7.13-0.16c-11.53-0.15-23.05-0.8-34.55-1.66c-15.43-1.15-30.78-3.05-46.03-5.64
					c-27.28-4.61-54.03-11.35-80.22-20.26c-42.87-14.6-83.23-34.32-120.95-59.38c-45.13-29.97-84.63-66.14-118.63-108.31
					c-38.76-48.11-67.9-101.52-87.77-159.98c-8.18-24.07-14.48-48.62-19.03-73.63c-2.01-10.99-3.63-22.05-4.89-33.15
					c-1.09-9.5-1.93-19.02-2.49-28.58c-0.47-7.98-0.9-15.97-1.35-23.97v-22.01c0.15-0.32,0.4-0.63,0.42-0.96
					c0.22-2.75,0.45-5.51,0.54-8.28c0.74-20.4,2.9-40.65,6.15-60.78c0.25-1.53,0.5-3.06,0.76-4.59L597.3,756.65
					c5.46,18.74,12.54,36.92,21.23,54.56c18.39,37.31,42.84,70.14,73.1,98.66c10.49,9.89,21.46,19.04,32.93,27.45l25.39-25.39v0.01
					l7.41-7.41c1.32-1.31,1.32-3.44,0-4.76l-167.5-167.5l-26.83-26.83L413.54,555.95l-61.42-61.42c-1.32-1.32-3.46-1.32-4.78,0
					l-14.4,14.39c-0.95,0.95-2.56,0.52-2.91-0.77l-26.18-97.73c-0.35-1.29,0.84-2.48,2.13-2.13l97.73,26.18
					c1.29,0.35,1.72,1.96,0.77,2.92l-14.41,14.4c-1.31,1.32-1.31,3.44,0,4.76L828.92,895.4c3.75,3.74,3.75,9.79,0,13.53l-31.2,31.2
					l-0.01-0.01l-9.79,9.79l-5.31,5.31l-11.01,11.01c6.44,3.28,13,6.36,19.69,9.24c23.15,9.98,47.15,17.24,71.92,21.89
					c15.75,2.95,31.66,4.79,47.67,5.49c5.36,0.24,10.72,0.34,16.09,0.49c4.6-0.12,9.21-0.24,13.82-0.38
					c2.86,0.08,5.73,0.24,8.58,0.24c26.81,0,53.61,0.01,80.42,0v-51.15h178.58v51.77
					C1208.54,1004.2,1208.54,1004.82,1208.54,1005.82z"/>
				<linearGradient id="SVGID_3_" gradientUnits="userSpaceOnUse" x1="434.6778" y1="660.0102" x2="1449.1678" y2="660.0102">
					<stop  offset="2.577728e-04" style="stop-color:#1E91D0"/>
					<stop  offset="0.1268" style="stop-color:#1E8DCB"/>
					<stop  offset="0.3221" style="stop-color:#1C80C0"/>
					<stop  offset="0.5617" style="stop-color:#156DB0"/>
					<stop  offset="0.8342" style="stop-color:#0A549D"/>
					<stop  offset="0.8996" style="stop-color:#0D4D98"/>
				</linearGradient>
				<path class="st2" d="M1449.17,636.12v546.62h-22.02c-1.42-1.19-3.18-0.8-4.78-0.93c-8.84-0.74-17.53-2.33-26.06-4.75
					c-27.88-7.92-51.35-23.07-71.19-43.98c-19.42-20.49-33.26-44.37-42.56-70.97c-1.71-4.89-2.98-9.9-4.7-14.78
					c-0.15-0.69-0.25-1.41-0.43-2.09c-4.45-17.4-6.96-35.09-6.98-53.03c-0.15-105.63-0.13-211.25-0.17-316.88
					c0.07-5.26,0.15-10.52,0.21-15.78c-0.03-0.63-0.09-1.25-0.09-1.88c-0.06-20.8-2.09-41.41-5.91-61.86
					c-6.48-34.53-18.02-67.26-34.67-98.19c-20.98-38.98-48.58-72.62-82.46-101.09c-32.38-27.22-68.6-47.74-108.63-61.5
					c-25.56-8.78-51.81-14.4-78.73-16.91c-16.68-1.56-33.38-1.93-50.12-1.13c-18.62,0.87-37.04,3.27-55.26,7.16
					c-30.17,6.42-58.94,16.77-86.28,31.05c-34.24,17.89-64.56,40.98-91.1,69.05c-24.91,26.35-45.28,55.81-60.76,88.59
					c-18.32,38.78-28.93,79.17-31.96,121.13L434.68,484.14c14.69-40.99,34.15-79.65,58.55-115.88
					c22.43-33.33,48.41-63.61,77.78-90.96c39.31-36.6,83.21-66.47,131.75-89.5c31.5-14.94,64.14-26.68,97.99-35.07
					c21.55-5.34,43.34-9.3,65.39-11.82c14.31-1.63,28.66-2.78,43.06-3.17c2.01-0.05,4.11,0.42,6.09-0.45h23.63
					c0.49,0.54,1.15,0.39,1.76,0.39c18.81,0.27,37.49,1.9,56.14,4.34c21.65,2.83,43.03,7.07,64.14,12.68
					c37.28,9.89,73.03,23.76,107.26,41.56c54.67,28.44,102.71,65.53,144.37,110.91c34.66,37.76,63.11,79.72,85.36,125.9
					c16.18,33.6,28.69,68.52,37.36,104.82c4.44,18.62,7.92,37.41,10.21,56.42c1.56,12.87,2.99,25.75,3.2,38.74
					C1448.74,634.06,1448.4,635.19,1449.17,636.12z"/>
				<linearGradient id="SVGID_4_" gradientUnits="userSpaceOnUse" x1="702.7759" y1="645.1633" x2="1208.3754" y2="645.1633">
					<stop  offset="2.577728e-04" style="stop-color:#1E91D0"/>
					<stop  offset="0.1268" style="stop-color:#1E8DCB"/>
					<stop  offset="0.3221" style="stop-color:#1C80C0"/>
					<stop  offset="0.5617" style="stop-color:#156DB0"/>
					<stop  offset="0.8342" style="stop-color:#0A549D"/>
					<stop  offset="0.8996" style="stop-color:#0D4D98"/>
				</linearGradient>
				<path class="st3" d="M1208.37,857.29c0.01,0.1,0.01,0.2,0,0.31c-0.04,1.11-0.12,2.22-0.12,3.33v35.04h-178.8
					c-0.02-103.46-0.02-206.92-0.02-310.39c0-2.88-3.47-4.32-5.51-2.28l-40.87,40.87l-0.26,0.25l-75.19,75.19
					c-2.23,2.23-5.84,2.23-8.06,0L750.06,550.15c-1.26-1.26-3.3-1.26-4.56,0l-13.55,13.54c-0.95,0.95-2.58,0.52-2.93-0.78
					l-26.18-97.72c-0.35-1.3,0.84-2.49,2.14-2.14l97.72,26.2c1.3,0.33,1.73,1.96,0.78,2.91l-15.44,15.45
					c-1.26,1.26-1.26,3.31,0,4.57l112.35,112.34c1.75,1.76,4.6,1.76,6.36,0l38.06-38.07l0.26-0.26l83.41-83.41
					c0.6-0.6,0.94-1.43,0.94-2.28v-98.61c0-1.87,0.17-3.75-0.36-5.62c-0.35-1.26,0.15-1.8,1.53-1.89c1.43-0.08,2.83,0.2,4.22,0.6
					c5.28,1.53,10.22,3.84,15.13,6.22c17.51,8.51,34.34,18.16,49.88,29.95c26.38,20.01,47.22,44.76,63.33,73.6
					c11.4,20.39,20.02,41.95,27.41,64.07c6.22,18.67,10.22,37.8,12.97,57.25c2.07,14.73,3.66,29.48,4.59,44.32
					c0.13,1.97,0.12,3.94,0.12,5.91c0.01,59.22,0.01,118.44,0.01,177.66C1208.25,855.07,1208.33,856.18,1208.37,857.29z"/>
				<linearGradient id="SVGID_5_" gradientUnits="userSpaceOnUse" x1="402.6478" y1="870.1706" x2="1208.2494" y2="870.1706">
					<stop  offset="2.577728e-04" style="stop-color:#1E91D0"/>
					<stop  offset="0.1268" style="stop-color:#1E8DCB"/>
					<stop  offset="0.3221" style="stop-color:#1C80C0"/>
					<stop  offset="0.5617" style="stop-color:#156DB0"/>
					<stop  offset="0.8342" style="stop-color:#0A549D"/>
					<stop  offset="0.8996" style="stop-color:#0D4D98"/>
				</linearGradient>
				<path class="st4" d="M1208.25,1004.95h-0.37c0.35,0.33,0.36,0.97,0.36,2.28c0.01,4.83,0.02,9.67,0,14.51
					c-0.04,8.16-0.89,16.26-2.42,24.29c-5.05,26.39-16.88,49.48-34.18,69.91c-4,4.73-8.46,9-12.68,13.51
					c-0.56,0.45-1.14,0.87-1.66,1.35c-19.25,17.66-41.29,30.67-65.75,39.7c-21.5,7.94-43.74,12.04-66.58,13.34
					c-2.18,0.13-4.43-0.33-6.56,0.53h-91.96l-0.14-0.08l0.04-0.13c-2.4,0.62-4.76-0.15-7.14-0.17c-11.55-0.15-23.08-0.8-34.6-1.66
					c-15.45-1.15-30.82-3.06-46.09-5.65c-27.31-4.61-54.09-11.36-80.32-20.29c-42.92-14.61-83.33-34.36-121.1-59.44
					c-45.18-30.02-84.73-66.23-118.77-108.46c-38.81-48.16-67.99-101.64-87.88-160.18c-8.19-24.1-14.5-48.68-19.06-73.72
					c-2.01-11-3.63-22.07-4.9-33.18c-1.08-9.51-1.92-19.05-2.48-28.62c-0.48-8-0.91-16-1.36-24.01v-22.03
					c0.15-0.32,0.4-0.63,0.43-0.96c0.21-2.75,0.44-5.52,0.53-8.29c0.74-20.42,2.9-40.7,6.15-60.86c1.12-6.92,2.38-13.82,3.78-20.69
					l149.49,149.49l26.83,26.83c5.83,27.85,15.04,54.56,27.63,80.11c18.41,37.36,42.89,70.23,73.19,98.79
					c10.43,9.82,21.34,18.93,32.73,27.3l20.12-20.12l1.11-1.1l37.97,37.97l-1.11,1.1l-11.1,11.1c6.56,3.34,13.25,6.48,20.07,9.42
					c23.18,10,47.2,17.27,72.01,21.92c15.77,2.95,31.69,4.79,47.72,5.5c5.37,0.23,10.74,0.33,16.11,0.49
					c4.61-0.12,9.23-0.25,13.84-0.38c2.87,0.08,5.74,0.24,8.59,0.24c26.9,0,53.8,0.01,80.7,0v-46.78h178.81V1004.95z"/>
			</g>
		</g>
		<g>
			<linearGradient id="SVGID_6_" gradientUnits="userSpaceOnUse" x1="453.5681" y1="513.1871" x2="920.7813" y2="731.0522">
				<stop  offset="2.577728e-04" style="stop-color:#FFFFFF"/>
				<stop  offset="0.0927" style="stop-color:#FBFCFE"/>
				<stop  offset="0.1357" style="stop-color:#F2F5FB"/>
				<stop  offset="0.1685" style="stop-color:#E4ECF7"/>
				<stop  offset="0.1961" style="stop-color:#D1E0F3"/>
				<stop  offset="0.2205" style="stop-color:#B9D1ED"/>
				<stop  offset="0.2425" style="stop-color:#9CC0E6"/>
				<stop  offset="0.2629" style="stop-color:#7AAEDE"/>
				<stop  offset="0.2813" style="stop-color:#509CD5"/>
				<stop  offset="0.2931" style="stop-color:#1E90CF"/>
				<stop  offset="0.3799" style="stop-color:#1D8BCA"/>
				<stop  offset="0.5191" style="stop-color:#1B7DBE"/>
				<stop  offset="0.6933" style="stop-color:#1369AD"/>
				<stop  offset="0.8939" style="stop-color:#0C4E98"/>
				<stop  offset="0.8996" style="stop-color:#0D4D98"/>
			</linearGradient>
			<path class="st5" d="M888.79,798.29l-24.45,24.45c-3.73,3.73-9.79,3.73-13.52,0L541.47,513.4c-1.34-1.34-3.51-1.34-4.85,0
				l-14.37,14.36c-0.94,0.94-2.57,0.5-2.91-0.78l-26.18-97.72c-0.35-1.3,0.84-2.49,2.14-2.14l97.72,26.18
				c1.3,0.35,1.73,1.97,0.78,2.91l-14.4,14.41c-1.32,1.32-1.32,3.46,0,4.78l309.38,309.38C892.52,788.5,892.52,794.56,888.79,798.29
				z"/>
		</g>
		
			<rect x="759.26" y="560.46" transform="matrix(0.7071 -0.7071 0.7071 0.7071 -221.5097 748.8671)" class="st6" width="67.91" height="162.72"/>
	</g>
	<g>
		<path class="st7" d="M285.61,224.05h-88.63c-2.6,0-4.72-2.11-4.72-4.72v-88.63c0-2.6,2.11-4.72,4.72-4.72h88.63
			c2.6,0,4.72,2.11,4.72,4.72v88.63C290.32,221.94,288.21,224.05,285.61,224.05z"/>
		<path class="st8" d="M428.04,132.05h-88.63c-2.6,0-4.72-2.11-4.72-4.72V38.7c0-2.6,2.11-4.72,4.72-4.72h88.63
			c2.6,0,4.72,2.11,4.72,4.72v88.63C432.76,129.94,430.65,132.05,428.04,132.05z"/>
		<path class="st9" d="M475.8,336.11H349.67c-2.6,0-4.72-2.11-4.72-4.72V205.26c0-2.6,2.11-4.72,4.72-4.72H475.8
			c2.6,0,4.72,2.11,4.72,4.72V331.4C480.52,334,478.41,336.11,475.8,336.11z"/>
		<path class="st10" d="M134.69,153.31H59.57c-2.6,0-4.72-2.11-4.72-4.72V73.47c0-2.6,2.11-4.72,4.72-4.72h75.12
			c2.6,0,4.72,2.11,4.72,4.72v75.12C139.41,151.2,137.3,153.31,134.69,153.31z"/>
		<path class="st11" d="M160.07,305.2H107.3c-2.6,0-4.72-2.11-4.72-4.72v-52.77c0-2.6,2.11-4.72,4.72-4.72h52.77
			c2.6,0,4.72,2.11,4.72,4.72v52.77C164.79,303.09,162.67,305.2,160.07,305.2z"/>
	</g>
</g>
</svg>
