<svg xmlns="http://www.w3.org/2000/svg" viewBox="0 0 383.18 383.43"><defs><style>.cls-1{fill:#fff;}</style></defs><g id="Layer_2" data-name="Layer 2"><g id="Layer_1-2" data-name="Layer 1"><path class="cls-1" d="M354.81,0c1.67.38,3.36.73,5,1.14,13.26,3.22,22.41,13.55,23,28.27C385.23,87.64,375,143,343.7,193.21c-16,25.71-36.36,47.76-59.42,67.32a7.71,7.71,0,0,0-3,5.93q-1.95,26.84-4.3,53.65c-.8,9.13-5.36,16.28-12.89,21.32-19.26,12.88-38.55,25.72-58,38.32-13,8.46-29.1,1.27-31.69-14.06-2.41-14.23-4.49-28.52-6.73-42.78-.21-1.32-.56-2.62-.76-3.59-3.93,0-7.54.34-11.07-.07-7.31-.84-13.37-4.31-18.57-9.53q-31.68-31.8-63.48-63.5c-7.84-7.82-11.54-17-9.48-28.11a12.22,12.22,0,0,0,0-1.87l-23.55-3.69c-8.12-1.27-16.28-2.32-24.34-3.86C9.36,207.34,4.38,203,1.52,196.38c-.48-1.1-1-2.17-1.52-3.26v-9a55.93,55.93,0,0,1,3.24-6.59c12.92-19.68,25.84-39.37,39-58.91a27.11,27.11,0,0,1,20.83-12.36c18.12-1.58,36.26-2.9,54.38-4.48a8.07,8.07,0,0,0,4.65-2.27c7.87-8.17,15.3-16.77,23.38-24.72,43.06-42.4,95.07-65.88,154.89-72.6C307.27,1.43,314.2.74,321.12,0Zm5.45,49c0-6.11.15-12.22-.05-18.32-.17-5.16-2.49-7.3-7.71-7.68-18.37-1.32-36.62-.1-54.83,2.33-27,3.6-53.06,10.49-77.23,23.06-50.71,26.38-88.08,66.13-114.75,116.36-1.28,2.4,0,3.33,1.32,4.65q53.46,53.45,106.87,107c1.8,1.8,3,2.06,5.36.85a255.87,255.87,0,0,0,40.89-26.11c28.65-22.47,53.18-48.65,70.83-80.71C351.74,132.63,359.76,91.64,360.26,49ZM193.89,288.91,95,190a151.44,151.44,0,0,0-8.53,33.68c-.21,1.75,1.11,4.18,2.47,5.55q32.39,32.67,65.08,65c1.48,1.47,4.39,2.72,6.28,2.34C171.37,294.4,182.31,291.64,193.89,288.91Zm2.25,70.1a13.75,13.75,0,0,0,1.63-.74c17.78-11.75,35.59-23.43,53.23-35.38,1.78-1.2,3.1-3.89,3.53-6.1a117,117,0,0,0,1.32-13.38c.56-7.26,1-14.52,1.61-22.41-2.21,1.37-3.88,2.37-5.53,3.42a248.49,248.49,0,0,1-57.16,27.16c-5.55,1.78-5.55,1.8-4.74,7.8q.38,2.78.81,5.55C192.59,336.22,194.35,347.51,196.14,359ZM24.25,186.89c.7.17,1.15.32,1.62.39,13.76,2.19,27.54,4.33,41.28,6.61,2.58.43,3.17-.94,3.77-2.91a245.38,245.38,0,0,1,29.33-61.85c.62-.95,1.16-1.95,2-3.4-12,.94-23.14,1.94-34.32,2.63-4.05.25-6.63,2-8.79,5.3-11,16.8-22.07,33.5-33.13,50.24C25.43,184.82,24.91,185.79,24.25,186.89Z"/><path class="cls-1" d="M0,369c2.12-2.71,4-5.67,6.41-8.09q33-33.18,66.18-66.09a17,17,0,0,1,8.32-4.27c4.72-.9,8.51,1.47,10.71,5.78s1.63,8.69-1.41,12.58a28.06,28.06,0,0,1-2.33,2.43q-33.19,33.19-66.4,66.39C13.08,386.15,5.82,385.21,0,375Z"/><path class="cls-1" d="M0,302.41c2.27-3,4.23-6.39,6.86-9.08,10.7-11,21.63-21.7,32.43-32.57,3.34-3.36,7.22-4.9,11.85-3.62,8,2.24,11.14,12.22,5.31,18.25Q38,294.46,18.93,312.91c-5.62,5.46-14.4,3.34-17.77-3.78C.8,308.38.39,307.64,0,306.9Z"/><path class="cls-1" d="M127.21,335.67c-1.36,2.55-2.24,5.57-4.18,7.57-11.91,12.22-24,24.26-36.14,36.24-5,4.9-11.85,4.81-16.34.14s-4.24-11.38.69-16.33Q89,345.41,106.91,327.61c3.73-3.72,8.65-4.68,13-2.73C124,326.73,126.52,330.66,127.21,335.67Z"/><path class="cls-1" d="M206.39,120.52a56.2,56.2,0,1,1,55.86,56.3A56.2,56.2,0,0,1,206.39,120.52Zm56.1-33.36a33.55,33.55,0,1,0,33.64,33.43A33.46,33.46,0,0,0,262.49,87.16Z"/></g></g></svg>