<svg width="46" height="47" viewBox="0 0 46 47" fill="none" xmlns="http://www.w3.org/2000/svg">
<path d="M18.6667 14.1946L22.8334 18.3612L27 14.1946" stroke="white" stroke-width="4" stroke-linecap="round" stroke-linejoin="round"/>
<path d="M22.8333 18.3621V6.9014C22.8333 4.59974 24.6989 2.73389 27 2.73389H39.5C41.8012 2.73389 43.6667 4.59974 43.6667 6.9014V18.3621" stroke="white" stroke-width="4" stroke-linecap="round" stroke-linejoin="round"/>
<path d="M27 32.9477L22.8334 28.781L18.6667 32.9477" stroke="white" stroke-width="4" stroke-linecap="round" stroke-linejoin="round"/>
<path d="M22.8333 28.781V40.2418C22.8333 42.5435 20.9678 44.4094 18.6667 44.4094H6.16666C3.86548 44.4094 2 42.5435 2 40.2418V28.781" stroke="white" stroke-width="4" stroke-linecap="round" stroke-linejoin="round"/>
<path d="M32.2083 19.4041L28.0417 23.5717L32.2083 27.7393" stroke="white" stroke-width="4" stroke-linecap="round" stroke-linejoin="round"/>
<path d="M28.0417 23.5715H39.5C41.8012 23.5715 43.6667 25.4375 43.6667 27.7391V40.2418C43.6667 42.5435 41.8012 44.4094 39.5 44.4094H28.0417" stroke="white" stroke-width="4" stroke-linecap="round" stroke-linejoin="round"/>
<path d="M13.4583 27.7393L17.625 23.5717L13.4583 19.4041" stroke="white" stroke-width="4" stroke-linecap="round" stroke-linejoin="round"/>
<path d="M17.625 23.5715H6.16667C3.86548 23.5715 2 21.7056 2 19.404V6.90142C2 4.59975 3.86548 2.73389 6.16667 2.73389H17.625" stroke="white" stroke-width="4" stroke-linecap="round" stroke-linejoin="round"/>
</svg>
