<svg xmlns="http://www.w3.org/2000/svg" viewBox="0 0 359.43 360.04"><defs><style>.cls-1{fill:#fff;}</style></defs><g id="Layer_2" data-name="Layer 2"><g id="Layer_1-2" data-name="Layer 1"><path class="cls-1" d="M287.53,57.43l35.76-35.88c4.88-4.89,7.24-4.88,12.19.06Q345.67,31.81,355.85,42c4.75,4.77,4.78,7.26.09,12q-29.64,29.7-59.32,59.35a9.91,9.91,0,0,0-3.29,7.77q.14,115.11.07,230.24c0,7.18-1.53,8.69-8.8,8.69H8.77C1.51,360,0,358.54,0,351.32V8.59C0,1.62,1.57.07,8.58.07Q116.74.05,224.9,0a11.47,11.47,0,0,1,8.9,3.65c16.76,17,33.65,33.81,50.51,50.69C285.26,55.29,286.25,56.21,287.53,57.43ZM281.1,347.91V128.3c-1.59,1.92-2.4,3-3.36,4q-54.88,55-109.85,110a17.93,17.93,0,0,1-6.45,4.19c-10.79,3.79-21.7,7.23-32.54,10.89-2.69.91-5.15,1.06-7.31-1s-2.09-4.8-1.14-7.61c3.53-10.38,6.79-20.85,10.51-31.16a23.59,23.59,0,0,1,5.16-8.39q66.54-66.94,133.29-133.69c1-1,1.88-2,3.31-3.49h-5.05q-19.46,0-38.92,0c-5.16,0-7.16-2.06-7.18-7.3,0-6.87,0-13.74,0-20.62V30.34h12V59.77H272a8.19,8.19,0,0,0-2.46-3.07q-21.06-21-42-42.18A7.87,7.87,0,0,0,221.34,12Q118.8,12.09,16.28,12H12.17V347.91ZM161.45,230.34,343.35,48.1l-14.2-14.29-182,182.34Zm-21.37-2.25-4.71,14.35,14.4-4.81Z"/><path class="cls-1" d="M140.08,228.09l9.69,9.54-14.4,4.81Z"/><path class="cls-1" d="M29.94,227.77c0-7.62,0-15.25,0-22.87,0-4.72,2.14-6.81,6.9-6.82q23,0,46,0c4.74,0,6.89,2.12,6.9,6.81q.06,23.25,0,46.5c0,4.46-2.21,6.62-6.71,6.63q-23.2.06-46.41,0C32,258,30,255.82,30,251,29.92,243.27,29.94,235.52,29.94,227.77ZM77.68,210.3H42.19v35.56H77.68Z"/><path class="cls-1" d="M29.94,305.75c0-7.49,0-15,0-22.49,0-5.06,2-7.17,6.91-7.18q23,0,46,0c4.74,0,6.88,2.12,6.89,6.82q.06,23.25,0,46.5c0,4.46-2.21,6.61-6.72,6.62q-23.2.06-46.41,0c-4.5,0-6.66-2.17-6.69-6.64C29.91,321.5,29.94,313.63,29.94,305.75Zm12.11,18H77.54V288.25H42.05Z"/><path class="cls-1" d="M42.15,89.91H77.71V78.36h12c0,6.26.26,12.59-.11,18.89-.19,3-2.61,4.76-5.77,4.77q-23.93,0-47.85,0c-3.76,0-6-2.32-6-6.14q-.09-23.79,0-47.57c0-3.68,2.14-6.11,5.59-6.17,7.95-.13,15.9,0,24.07,0V53.85H42.15Z"/><path class="cls-1" d="M42.05,131.89v36H77.76V156.34h12c0,6.21.2,12.42-.09,18.61-.14,3.07-2.38,5-5.52,5q-24.28.14-48.59,0c-3.32,0-5.55-2.41-5.57-5.82q-.11-24.15,0-48.31c0-3.33,2-5.59,5.27-5.69,8.06-.23,16.14-.07,24.4-.07v11.8Z"/><path class="cls-1" d="M91.15,37.62l8.79,8.58c-.71.82-1.31,1.6-2,2.28Q81.71,64.77,65.45,81c-4.23,4.21-6.89,4.19-11.11,0-3.55-3.48-7.13-6.92-10.89-10.55l9.45-8.6,6.29,7.86Z"/><path class="cls-1" d="M99.89,124.69c-4.23,4.19-8.57,8.45-12.88,12.76-7.32,7.31-14.6,14.66-21.94,22-3.71,3.69-6.61,3.69-10.31.1s-7.45-7.3-11-10.8l8.87-9.27,7.08,8.38c10.91-11,21.33-21.46,31.68-31.89Z"/><path class="cls-1" d="M221.3,336H209.9V324.34h11.4Z"/><path class="cls-1" d="M245.31,335.89H233.79V324.28h11.52Z"/><path class="cls-1" d="M269.26,324.29v11.46H257.75V324.29Z"/></g></g></svg>