<svg xmlns="http://www.w3.org/2000/svg" viewBox="0 0 372.08 371.48"><defs><style>.cls-1{fill:#fff;}</style></defs><g id="Layer_2" data-name="Layer 2"><g id="Layer_1-2" data-name="Layer 1"><path class="cls-1" d="M25.89,118.66C-2.35,95.8-5.6,60.76,7.07,36.18A66.64,66.64,0,0,1,73.72.38c26.35,2.8,57.19,25.26,58.68,65.42H216c.75-3.57,1.35-7.12,2.26-10.59,8.1-30.72,35.58-50.42,68.39-49.08,29,1.18,55.29,24.64,60.33,54.37.74,4.42,2.23,6.32,6.42,7.83,11.32,4.09,18.64,15.21,18.65,27.29q0,78,0,156.09a29.74,29.74,0,0,1-30,29.88c-9.85.05-19.7,0-30,0,0,1.75,0,3.21,0,4.66.1,5,2.33,7.31,7.38,7.33,11.37.05,22.75,0,34.12,0,10.58,0,18.5,7.72,18.5,17.93s-7.91,18-18.47,18q-43.5,0-87,0c-2.33,0-3.72.46-5,2.74-3.38,6.16-8.81,9.3-15.95,9.29-7.5,0-15.26-1.22-22.42.34s-13.52,5.92-20.27,9c-11.45,5.22-23,10.34-34.39,15.59A55.38,55.38,0,0,1,145,371.48q-64.12-.08-128.24,0H12v-4c0-17.22-.19-34.44.05-51.65.34-25.8,11.77-45.61,33.37-59.59,1.91-1.24,2.76-2.46,2.64-4.75-.19-3.73.11-7.49-.15-11.22a4.69,4.69,0,0,0-2.08-3.3Q12.11,219.66,12,181.89c0-8.86.34-17.74-.08-26.58C11.28,141.08,15.1,128.72,25.89,118.66Zm82.05,13.21h11.55c10.6,0,18.52,7.7,18.53,17.9s-7.9,17.95-18.44,18c-3.57,0-7.14,0-10.66,0,1.62,18.22,3.19,35.89,4.78,53.76H360.09V115.13c0-6.36.09-12.73,0-19.09C359.9,88,354.65,81,347.75,79.65c-2.12,15.56-8.64,29-20.05,39.89s-25.11,17.8-40.87,18c-40.54.65-63-21.06-71.28-59.46H130.84c-1.7,8.78-4.52,17.12-9.89,24.08s-11.49,13-17.44,19.56C104.67,124.43,106.22,128,107.94,131.87Zm27.57,204.2a48.14,48.14,0,0,1,4.84-2.19c2.64-.86,3.16-2.33,2.67-5.07-1.36-7.6-2.27-15.27-3.43-22.9-4.73-31.12-37.08-53.59-67.94-47.21-28.6,5.91-47.56,29.14-47.64,58.37,0,12.48,0,24.95,0,37.42v4.71H114c-16.34-13.89-17-34-23.92-51.86l11.65-3.48c.44,1.24.8,2.15,1.09,3.08C105.52,316,108,325.1,111,334.06c5.54,16.51,22.52,27.32,39,25.23,12-1.53,21.89-8.42,33-12.61-2.51-5.55-4.78-10.59-7.08-15.71L140.5,347ZM96.13,247a69.56,69.56,0,0,1,36,19.66,9,9,0,0,0,7.1,3.06q99.9-.14,199.81-.07c1.12,0,2.25,0,3.37,0,8.69-.44,15.91-6,17-14.56.88-6.93.18-14.06.18-21.38h-4.4q-123.34,0-246.67-.13c-4.93,0-8.21,2.83-11.71,5C95.47,239.37,96.31,243.77,96.13,247ZM282,18c-29.55,0-53.94,24.36-54,53.86s24.32,53.9,53.86,54,54.25-24.43,54.17-54.05S311.56,18,282,18ZM65.88,11.73c-4.07.6-8.24.81-12.18,1.87-22.21,6-36.4,20.19-40.59,42.7C9,78.22,17,96.2,34.86,109.6c1.19.89,3.38.85,5,.64,4.8-.61,9.53-2,14.32-2.23a224,224,0,0,1,23.61,0,48.65,48.65,0,0,1,13,2.88,5.56,5.56,0,0,0,5.73-.68,53.61,53.61,0,0,0,21-60.32A55,55,0,0,0,65.88,11.73Zm6.25,216c5.46,0,10.56.11,15.66,0,8.62-.22,14.26-7,13.24-15.47-.79-6.56-1.31-13.14-2-19.71-.83-8.15-1.69-16.29-2.56-24.71-13.12,0-26,0-38.81,0a2.51,2.51,0,0,0-1.38.4c-8.68,6.85-12,17.19-3.71,25.07,6.21,5.89,8.56,12,7.43,20a16.89,16.89,0,0,0,0,2.25v33L83.79,245v-5.47H72.13Zm227.61,54.15H252.05c0,5.48-.05,10.71,0,15.93a3.82,3.82,0,0,0,1,2.59,32.36,32.36,0,0,1,10.54,17.19h2.12q43.26,0,86.54,0a11,11,0,0,0,3.66-.5c4.14-1.46,5.59-6.43,2.43-9.27a9.86,9.86,0,0,0-6.05-2.12c-11.49-.2-23-.06-34.47-.11a17.33,17.33,0,0,1-17-13.11C300,289.12,300.09,285.57,299.74,281.86Zm-275.52-126c12.32,0,24.42,0,36.51-.1.87,0,2-1.21,2.53-2.13,2.14-3.94,4-8,6.13-12,3.53-6.45,9-9.8,16.45-9.76h8.57c-2-7.06-8.6-11.86-16.51-12s-16-.11-24,0a32.2,32.2,0,0,0-7.73,1.16C31.21,125.2,22.93,138.15,24.22,155.83Zm155.84,126H144.85c2.24,7.37,4.89,14.59,6.57,22s2.41,15.12,3.64,23.27c8.28-3.76,16.07-7.26,23.8-10.9a3.08,3.08,0,0,0,1.15-2.36C180.08,303.29,180.06,292.71,180.06,281.83ZM24.2,168C22.28,195.87,32.68,220,48,223.55c0-4.52-.17-9,.06-13.48a7.55,7.55,0,0,0-2.73-6.49c-6.83-6.29-10.19-14.17-9.18-23.43.44-4.09,2.07-8.05,3.19-12.19ZM239.91,281.87H192.29v26.29c13-15.57,30.13-15.46,47.62-14.22Zm-12,47.64c6.37,0,12.34.18,18.28-.06,3.88-.16,6.13-3.28,5.78-7.25-.67-7.82-6.2-14.83-14-15.85-6.45-.85-13.11-.17-19.68-.1a10.48,10.48,0,0,0-2.6.88C224.65,312.15,228.84,319.21,227.93,329.51ZM75.82,155.81c15.13,0,29.59.07,44.05-.05a6,6,0,1,0-.19-11.89c-11.35-.1-22.71-.17-34.06.1a7.76,7.76,0,0,0-5.16,3C78.63,149.38,77.56,152.38,75.82,155.81ZM194.06,341.59c6.06-2.78,11.89-5.25,17.52-8.12a8,8,0,0,0,3.81-10.2c-1.4-3.78-5.49-6.73-9.09-5.48-6.51,2.26-12.75,5.24-19.27,8C189.49,331.31,191.66,336.18,194.06,341.59Z"/><path class="cls-1" d="M209.74,209.58H150.28V162h59.46ZM197.89,174H162.33v23.52h35.56Z"/><path class="cls-1" d="M222.23,185.49V174H347.87v11.49Z"/><path class="cls-1" d="M347.9,150.11v11.48H222.26V150.11Z"/><path class="cls-1" d="M347.88,198v11.51H246.25V198Z"/><path class="cls-1" d="M209.89,90.23v11.43H150.27V90.23Z"/><path class="cls-1" d="M209.86,114.15v11.51h-59.5V114.15Z"/><path class="cls-1" d="M209.88,138.16v11.42h-59.6V138.16Z"/><path class="cls-1" d="M222.32,197.94h11.53v11.49H222.32Z"/><path class="cls-1" d="M299.8,257.46H288.26V246H299.8Z"/><path class="cls-1" d="M312.27,245.84H323.8v11.58H312.27Z"/><path class="cls-1" d="M347.76,257.51H336.32V245.89h11.44Z"/><path class="cls-1" d="M270.25,53.71V42.2h47.5V53.71Z"/><path class="cls-1" d="M270.16,77.7V66.27h47.62V77.7Z"/><path class="cls-1" d="M317.78,101.74H270.29V90.23h47.49Z"/><path class="cls-1" d="M246.22,53.69V42.23h11.64V53.69Z"/><path class="cls-1" d="M257.88,66.25V77.73H246.37V66.25Z"/><path class="cls-1" d="M246.25,90.08H257.8v11.6H246.25Z"/><path class="cls-1" d="M24.22,71.27V60c6.77,0,13.36-.1,20,.11,1,0,2.24,1.31,2.8,2.33,2,3.56,3.72,7.27,5.92,11.65C59.3,54.92,65.46,36.54,71.62,18.15h.8q3.52,10.5,7,21c2.61,7.79,5.32,15.54,7.72,23.39.85,2.79,2.2,3.63,5,3.49,5.09-.25,10.2-.07,15.55-.07V77.92c-9,0-17.8.07-26.63-.12-.82,0-2-1.57-2.35-2.63-2.21-6.17-4.25-12.4-7.16-18.73l-16.5,49.19c-3.45-6.88-6.5-13-9.56-19.07-2.23-4.46-3.43-10.3-7-13C35.21,71.09,29.33,71.94,24.22,71.27Z"/></g></g></svg>