<?xml version="1.0" encoding="utf-8"?>
<!-- Generator: Adobe Illustrator 25.2.0, SVG Export Plug-In . SVG Version: 6.00 Build 0)  -->
<svg version="1.1" id="Layer_1" xmlns="http://www.w3.org/2000/svg" xmlns:xlink="http://www.w3.org/1999/xlink" x="0px" y="0px"
	 viewBox="0 0 445.52 489.56" style="enable-background:new 0 0 445.52 489.56;" xml:space="preserve">
<style type="text/css">
	.st0{fill:#FFFFFF;}
</style>
<g>
	<path class="st0" d="M121.37,40.55c0.07,1.72,0.2,3.45,0.2,5.17c0.01,77.97,0.01,155.94,0.01,233.92c0,1.7,0,3.39,0,5.32
		c6.8,0,13.1,0,19.85,0c0-1.9,0-3.59,0-5.29c0-55.49-0.03-110.97,0.09-166.46c0.01-2.61,0.85-5.51,2.17-7.77
		c8.38-14.34,17-28.54,25.55-42.78c0.66-1.1,1.39-2.17,2.31-3.6c0.92,1.38,1.68,2.42,2.34,3.52c8.34,13.9,16.61,27.85,25.05,41.68
		c1.94,3.18,2.85,6.33,2.84,10.08c-0.09,55.09-0.06,110.17-0.06,165.26c0,1.69,0,3.39,0,5.33c71.3,0,142.14,0,213.47,0
		c0-1.53,0-2.95,0-4.38c0-56.68,0-113.37,0-170.05c0-14.03-7.11-21.18-21.06-21.18c-61.87-0.01-123.74,0-185.62,0
		c-1.72,0-3.43,0-5.44,0c0-4,0-7.77,0-12.02c1.44,0,2.86,0,4.27,0c62.4,0,124.81-0.01,187.21,0c20.13,0,32.59,12.45,32.6,32.56
		c0.01,73.05,0.01,146.1,0,219.15c0,19.79-12.61,32.42-32.4,32.43c-34.86,0.02-69.72,0.01-104.58,0.01c-1.57,0-3.14,0-4.98,0
		c0,14.71,0,29.11,0,43.93c5.48,0,10.78,0.23,16.05-0.05c12.97-0.69,24.02,9.5,23.67,23.81c-0.16,6.51-0.03,13.02-0.03,19.86
		c-68.06,0-135.94,0-203.91,0c0-8.27-0.7-16.55,0.17-24.66c1.21-11.32,10.18-18.69,21.58-18.92c5.81-0.12,11.63-0.02,17.66-0.02
		c0-14.77,0-29.08,0-43.95c-1.59,0-3.13,0-4.67,0c-34.6,0-69.19-0.27-103.78,0.12c-16.8,0.19-29.75-9.46-32.9-23.86
		c-0.08-0.35-0.44-0.63-0.67-0.94c0-78.25,0-156.49,0-234.74c0.83-2.2,1.53-4.45,2.5-6.58c3.42-7.51,8.82-12.94,16.82-16.08
		c1.51,4.05,2.83,7.59,4.15,11.12c-8.55,4.48-11.57,11.32-11.55,20.24c0.12,56.54,0.06,113.09,0.06,169.63c0,1.53,0,3.07,0,4.6
		c8.01,0,15.4,0,23.15,0c0-81.63,0-163.02,0-244.41C76.12,40.55,98.74,40.55,121.37,40.55z M415.14,297.84
		c-128.48,0-256.53,0-384.74,0c0,11.49-0.24,22.66,0.09,33.81c0.22,7.5,3.91,13.38,11.07,16.09c3.37,1.27,7.28,1.53,10.95,1.53
		c113.51,0.08,227.02,0.06,340.53,0.06c1.46,0,2.93,0.04,4.39-0.09c10.53-1,17.24-7.33,17.62-17.59
		C415.46,320.5,415.14,309.32,415.14,297.84z M109.16,285.04c0-77.65,0-154.96,0-232.27c-14.6,0-28.91,0-43.3,0
		c0,4.8,0,9.36,0,14.33c9.8,0,19.31,0,28.84,0c0,4.09,0,7.75,0,11.85c-9.72,0-19.22,0-28.83,0c0,4.21,0,7.96,0,12.15
		c5.55,0,10.8,0,16.02,0c0,4.11,0,7.77,0,11.9c-5.48,0-10.72,0-16.11,0c0,4.13,0,7.78,0,11.87c9.71,0,19.22,0,28.87,0
		c0,4.21,0,7.97,0,12.21c-9.77,0-19.28,0-28.82,0c0,4.13,0,7.78,0,11.88c5.51,0,10.75,0,16.1,0c0,4.12,0,7.79,0,12.12
		c-5.51,0-10.85,0-16.14,0c0,4.21,0,7.76,0,11.75c9.72,0,19.22,0,28.87,0c0,4.23,0,8.01,0,12.27c-9.78,0-19.3,0-28.78,0
		c0,4.15,0,7.8,0,11.91c5.55,0,10.8,0,16.06,0c0,4.15,0,7.83,0,12.03c-5.44,0-10.69,0-16.09,0c0,4.15,0,7.79,0,11.88
		c9.78,0,19.29,0,28.77,0c0,4.24,0,8.01,0,12.31c-9.79,0-19.27,0-28.81,0c0,4.06,0,7.59,0,11.61c5.48,0,10.72,0,16.06,0
		c0,4.27,0,8.05,0,12.33c-5.49,0-10.73,0-16.08,0c0,4.05,0,7.57,0,11.61c9.71,0,19.21,0,28.92,0c0,4.28,0,8.06,0,12.32
		c-9.71,0-19.21,0-28.84,0c0,4.91,0,9.34,0,13.93C80.36,285.04,94.57,285.04,109.16,285.04z M173.1,404.91c33.27,0,66.31,0,99.34,0
		c0-14.65,0-28.83,0-43.18c-33.22,0-66.23,0-99.34,0C173.1,376.29,173.1,390.6,173.1,404.91z M153.92,121.5
		c0,44.22,0,87.75,0,131.42c11.86,0,23.49,0,35.15,0c0-43.77,0-87.27,0-131.37c-3.99,2.39-7.73,4.17-10.93,6.66
		c-4.5,3.48-8.42,3.76-13.01,0.11C161.88,125.72,158,123.94,153.92,121.5z M312.74,437.24c0-2.42,0-4.39,0-6.37
		c-0.01-10-3.46-13.48-13.32-13.48c-50.3,0-100.6,0-150.9,0c-2,0-4-0.08-5.99,0.04c-4.43,0.28-8.56,3.36-9.19,7.5
		c-0.6,4-0.45,8.11-0.64,12.31C192.97,437.24,252.56,437.24,312.74,437.24z M153.89,265.7c0,6.65,0,12.84,0,19.26
		c11.85,0,23.46,0,35.22,0c0-6.54,0-12.83,0-19.26C177.3,265.7,165.78,265.7,153.89,265.7z M187.23,108.47
		c-5.2-8.66-10.3-17.16-15.67-26.11c-5.44,9.1-10.45,17.47-15.62,26.1c5.02,3.02,9.61,5.89,14.32,8.53c0.78,0.43,2.32,0.16,3.2-0.34
		C177.95,114.11,182.34,111.4,187.23,108.47z"/>
	<path class="st0" d="M263.25,169.05c0-22.69,0-45,0-67.53c46.59,0,92.96,0,139.64,0c0,22.38,0,44.78,0,67.53
		C356.5,169.05,310.04,169.05,263.25,169.05z M275.58,156.88c38.69,0,77.04,0,115.31,0c0-14.62,0-28.91,0-43.32
		c-38.55,0-76.81,0-115.31,0C275.58,128.07,275.58,142.37,275.58,156.88z"/>
	<path class="st0" d="M249.78,101.49c0,3.96,0,7.63,0,11.81c-3.89,0-7.66,0-11.62,0c0,49.41,0,98.31,0,147.74c3.76,0,7.53,0,11.53,0
		c0,4.32,0,8.11,0,12.2c-11.76,0-23.51,0-35.48,0c0-3.92,0-7.72,0-12.01c3.84,0,7.61,0,11.57,0c0-49.41,0-98.33,0-147.72
		c-3.77,0-7.55,0-11.56,0c0-4.25,0-8.03,0-12.01C226.02,101.49,237.67,101.49,249.78,101.49z"/>
	<path class="st0" d="M327.06,181.42c0,14.66,0,29.08,0,43.87c-1.4,0.07-2.69,0.2-3.99,0.2c-18.62,0.01-37.24-0.07-55.86,0.08
		c-3.31,0.03-4.31-0.9-4.26-4.24c0.19-11.97,0.07-23.94,0.08-35.91c0-1.29,0.14-2.59,0.22-4
		C284.67,181.42,305.75,181.42,327.06,181.42z M314.89,212.96c0-6.64,0-12.82,0-19.25c-13.18,0-26.12,0-39.31,0
		c0,6.45,0,12.74,0,19.25C288.7,212.96,301.65,212.96,314.89,212.96z"/>
	<path class="st0" d="M403.07,181.46c0,14.66,0,28.99,0,43.67c-21.21,0-42.35,0-63.69,0c0-14.56,0-28.98,0-43.67
		C360.57,181.46,381.62,181.46,403.07,181.46z M351.51,193.62c0,6.64,0,12.93,0,19.26c13.29,0,26.34,0,39.34,0
		c0-6.58,0-12.85,0-19.26C377.65,193.62,364.79,193.62,351.51,193.62z"/>
	<path class="st0" d="M373.01,241.56c0,3.83,0,7.6,0,11.67c-9.19,0-18.25,0-27.64,0c0-3.77,0-7.53,0-11.67
		C354.41,241.56,363.57,241.56,373.01,241.56z"/>
	<path class="st0" d="M296.94,241.43c0,4.06,0,7.85,0,11.87c-9.2,0-18.17,0-27.49,0c0-3.89,0-7.76,0-11.87
		C278.5,241.43,287.47,241.43,296.94,241.43z"/>
	<path class="st0" d="M385.25,253.52c0-4.24,0-7.99,0-12.32c3.4,0,6.66-0.05,9.91,0.01c3.11,0.06,2.39,2.63,2.06,4.09
		c-0.61,2.74,2.37,6.84-2,8.05C392.19,254.2,388.74,253.52,385.25,253.52z"/>
	<path class="st0" d="M320.95,241.46c0,3.98,0,7.76,0,11.81c-3.92,0-7.68,0-11.66,0c0-3.99,0-7.76,0-11.81
		C313.19,241.46,316.95,241.46,320.95,241.46z"/>
	<path class="st0" d="M204.66,329.31c0-4.06,0-7.83,0-11.73c-4.06,0-7.83,0-11.78,0c0,4.03,0,7.79,0,11.73
		C196.83,329.31,200.51,329.31,204.66,329.31z M252.92,329.36c0-3.58,0.2-6.76-0.14-9.88c-0.09-0.81-1.97-2.18-2.8-2.03
		c-3.11,0.57-7.5-2.31-9.13,1.69c-1.18,2.92-0.23,6.7-0.23,10.22C244.92,329.36,248.6,329.36,252.92,329.36z M216.85,329.3
		c4.19,0,7.86,0,11.8,0c0-3.95,0-7.71,0-11.62c-4.04,0-7.89,0-11.8,0C216.85,321.72,216.85,325.37,216.85,329.3z"/>
	<path class="st0" d="M204.66,329.31c-4.16,0-7.83,0-11.78,0c0-3.94,0-7.7,0-11.73c3.95,0,7.73,0,11.78,0
		C204.66,321.49,204.66,325.25,204.66,329.31z"/>
	<path class="st0" d="M252.92,329.36c-4.32,0-8,0-12.29,0c0-3.52-0.95-7.3,0.23-10.22c1.62-4.01,6.01-1.13,9.13-1.69
		c0.83-0.15,2.71,1.22,2.8,2.03C253.12,322.6,252.92,325.78,252.92,329.36z"/>
	<path class="st0" d="M216.85,329.3c0-3.93,0-7.58,0-11.62c3.91,0,7.76,0,11.8,0c0,3.91,0,7.67,0,11.62
		C224.71,329.3,221.04,329.3,216.85,329.3z"/>
	<path class="st0" d="M177.41,184.84c-4.11,0-7.79,0-11.73,0c0-13.24,0-26.3,0-39.63c3.92,0,7.69,0,11.73,0
		C177.41,158.39,177.41,171.47,177.41,184.84z"/>
	<path class="st0" d="M165.67,221.2c3.94,0,7.72,0,11.75,0c0,6.49,0,12.91,0,19.54c-3.94,0-7.72,0-11.75,0
		C165.67,234.22,165.67,227.82,165.67,221.2z"/>
	<path class="st0" d="M177.45,197.2c0,4.07,0,7.72,0,11.58c-3.98,0-7.74,0-11.77,0c0-3.86,0-7.6,0-11.58
		C169.61,197.2,173.38,197.2,177.45,197.2z"/>
</g>
</svg>
