<svg xmlns="http://www.w3.org/2000/svg" viewBox="0 0 384 383.36"><defs><style>.cls-1{fill:#fff;}</style></defs><g id="Layer_2" data-name="Layer 2"><g id="Layer_1-2" data-name="Layer 1"><path class="cls-1" d="M0,238.82c2.57-7,6.53-12.71,14.23-14.47a42.08,42.08,0,0,1,10-.78c4.31.07,7.2-1.53,8.57-5.69a25.32,25.32,0,0,1,1.43-3.45c1.8-3.53.93-6.45-1.86-9.07a57.79,57.79,0,0,1-4.66-4.86c-6.78-8.06-6.68-18.42.55-26.1q9-9.56,18.55-18.54c7.79-7.29,18.4-7.18,26.43-.1,1.12,1,2.16,2.07,3.23,3.13,4.63,4.6,5.82,4.84,11.89,2.33,7.33-3,7.59-3.46,7.61-12.48,0-10.48,5.15-17.83,14.24-20.29a17,17,0,0,1,4.43-.62c9.49,0,19-.21,28.47.27,8.69.43,15.79,7.85,16.59,16.52.28,3,.28,6,.38,9a6.57,6.57,0,0,0,4.35,6.36c1.39.57,2.78,1.12,4.13,1.77,3.86,1.88,7.15,1.33,10.09-1.95a41,41,0,0,1,5.76-5.33c7.14-5.43,16.87-5.48,23.49.53,7.29,6.62,14.29,13.61,20.93,20.89,5.92,6.5,5.83,16.5.39,23.46a64.56,64.56,0,0,1-5.89,6.27,7.09,7.09,0,0,0-1.68,8.53c.58,1.38,1.24,2.73,1.71,4.14,1.24,3.72,3.83,5.31,7.67,5.27a72,72,0,0,1,7.49.27c9.46.86,16.71,7.74,17.15,17.17.45,9.83.43,19.71,0,29.53-.45,9.28-8.57,16.56-17.87,16.93-1,0-2,0-3,0-9,0-9.31.3-12.91,8.76-1.63,3.82-1.22,7,1.89,9.78a55.07,55.07,0,0,1,4,4c7.3,8.06,7.43,18.74,0,26.68q-9,9.55-18.57,18.52c-7.6,7.1-17.83,7.2-25.86.62-1.15-.95-2.23-2-3.3-3-5.68-5.62-5.84-5.66-13.36-2.51-5.91,2.48-6.25,3.42-6.66,9.78-.28,4.39-.7,9.05-2.43,13-2.93,6.68-8.85,10-16.18,10.2-8.87.19-17.75.15-26.62,0A19,19,0,0,1,96,364.65c0-.62,0-1.25,0-1.87,0-9.93-.48-10.45-9.92-14a6.86,6.86,0,0,0-7.86,1.6c-2.07,2-4,4.1-6.29,5.88-7.13,5.67-17,5.94-23.77-.1a260.86,260.86,0,0,1-20.94-20.86c-6.33-7.08-5.92-17,.09-24.35.71-.87,1.48-1.68,2.27-2.48,6.93-7,6.86-7,2.82-16.16a7.47,7.47,0,0,0-7.59-4.89c-3,0-6.07.28-9-.28A18.83,18.83,0,0,1,1.24,275.1c-.36-.89-.83-1.73-1.24-2.6ZM196.18,348.13a34,34,0,0,0,5.16-3.38c4.36-4.11,8.53-8.42,12.77-12.66,8.28-8.26,8.29-9.17.22-17.39l-.52-.53c-10.9-11.41-4.7-34.21,10.54-38.65a21.25,21.25,0,0,1,4.78-.73c2.36-.13,4.75.07,7.12-.11,4.51-.33,6.76-2.73,6.81-7.25.07-6.24,0-12.48,0-18.72,0-11.61-.47-12.09-12.25-12.22-7.4-.08-13.52-2.81-17.28-9.27a57.76,57.76,0,0,1-5-12c-1.88-6.06-.15-11.58,3.7-16.44a68,68,0,0,1,4.88-5.17c4.12-4.28,4.17-7.39.05-11.56-4.74-4.8-9.54-9.54-14.31-14.3-5.73-5.71-8.22-5.71-14,0C180,176.66,174,177.84,162.28,173c-1.15-.47-2.31-.94-3.44-1.46-7.56-3.47-11.29-9.5-11.73-17.66-.11-2,0-4,0-6-.11-4.79-2.38-7.15-7.13-7.19-7.87-.08-15.75-.07-23.62,0-4.91,0-7.29,2.37-7.52,7.32-.1,2.12,0,4.24-.06,6.36-.2,6.88-3.17,12.37-9.09,15.77a58.24,58.24,0,0,1-12,5c-6.36,1.94-12.07,0-17.07-4.11-1.44-1.19-2.72-2.58-4.05-3.9-4.92-4.84-7.83-4.88-12.65-.1s-9.37,9.35-14.05,14c-5.51,5.52-5.31,7.7-.11,13.46a39.26,39.26,0,0,1,7.44,10.94c2.86,7-.51,13.38-3.42,19.61-3.4,7.24-9.29,10.84-17.14,11.39-2.12.15-4.25,0-6.37.06-4.73.1-7.26,2.35-7.36,7.09q-.26,12,0,24c.1,4.66,2.63,6.93,7.4,7.17,2.12.1,4.25,0,6.37.05,7.68.26,13.34,3.87,16.78,10.65,6.6,13,7.22,21.63-4.71,32.38-4.21,3.79-3.94,7.08.15,11.21,4.83,4.88,9.71,9.71,14.58,14.56,5.55,5.52,7.69,5.32,13.49.11a48.84,48.84,0,0,1,10.95-7.46c7.47-3.65,25.72,4,28.72,12.06a44.68,44.68,0,0,1,2.11,8.22,42.49,42.49,0,0,1,.1,6c.14,5.55,2.52,8,8.06,8.06,6,.08,12-.09,18,.05,9.46.22,12.74-.51,12.33-12-.34-9.29,4.08-15.95,12.83-19.54,1.38-.56,2.74-1.18,4.12-1.76q13.22-5.5,23.32,4.6a39.1,39.1,0,0,0,4,3.9A31.29,31.29,0,0,0,196.18,348.13Z"/><path class="cls-1" d="M384,195.39c-1.18,2.46-2.05,5.12-3.59,7.33-4,5.77-9.88,8.16-16.77,8.24-5.87.06-11.75.14-17.62,0-3.95-.12-6.3,1.59-7.7,5.17-2,5.09-4,10.19-6.3,15.16-1.71,3.72-1,6.65,1.84,9.42,4,3.9,8,7.91,11.93,11.9,9.16,9.28,9.27,20.18.19,29.4q-12.5,12.66-25.2,25.12C311.69,316,300.69,316,291.6,307q-9.89-9.71-19.63-19.57c-2.32-2.35-3-5.17-1.35-8.17a5.71,5.71,0,0,1,7-2.87,12.1,12.1,0,0,1,4.55,3.08c6.08,5.92,12,12,18.08,17.94,4.38,4.33,7.51,4.35,11.83.07q12.22-12.13,24.39-24.35c4.32-4.34,4.28-7.35-.12-11.8-4.13-4.17-8.35-8.25-12.43-12.47-6.19-6.4-7.57-13.76-4.12-22,2.16-5.16,4.38-10.31,6.46-15.5,3.6-9,9.75-13.3,19.53-13.49,5.87-.11,11.75,0,17.62,0,5.27-.06,7.69-2.27,7.74-7.42q.15-18,0-35.93c0-5.12-2.46-7.39-7.75-7.5-5.75-.13-11.5,0-17.25,0-10.5-.13-16.28-4.27-20.13-14.11-1.95-5-4.12-9.87-6.21-14.8-3.41-8.08-2.16-15.37,3.87-21.71,4.13-4.35,8.47-8.48,12.68-12.75,4.41-4.47,4.45-7.42.1-11.78q-12.3-12.35-24.67-24.61c-4.07-4-7.1-4-11.26,0s-8.12,8.13-12.22,12.14c-7,6.9-14.26,8.2-23.25,4.36-5-2.15-10.12-4.2-15.21-6.24C241.47,54.12,237,48,236.8,38.9c-.1-5.86,0-11.73-.05-17.59-.07-6.28-2.34-8.53-8.64-8.55q-16.87,0-33.75,0c-6.38,0-8.52,2.17-8.61,8.48-.1,6.85.11,13.73-.45,20.55C184.71,49,180.51,54,174,56.83,168,59.43,162,61.89,156,64.3c-7.87,3.13-15,1.7-21.07-4.09-4.44-4.21-8.67-8.63-13-12.91s-7.3-4.14-11.55.08Q98,59.65,85.71,72c-4,4-4,7.23,0,11.27,5.87,6,11.82,11.84,17.73,17.76a27.32,27.32,0,0,1,2.48,2.79c2.1,2.84,1.71,5.64-.52,8.17a6.09,6.09,0,0,1-8.16.69A71,71,0,0,1,91,106.79C86,101.87,81,97,76.15,92c-8.56-8.79-8.65-19.8-.07-28.6s17-17.22,25.71-25.67c9-8.72,19.92-8.58,28.92.19,4.11,4,8.2,8.06,12.2,12.17,2.77,2.86,5.7,3.56,9.43,1.85,5-2.28,10.08-4.3,15.19-6.29,3.58-1.4,5.28-3.75,5.16-7.7-.18-5.73-.09-11.48,0-17.21C172.77,10.37,177.44,4,187.32.61a4.51,4.51,0,0,0,.93-.61h46.5c.25.24.46.59.76.7,9.88,3.71,14.16,9.84,14.19,20.4,0,5.61.12,11.23,0,16.83-.12,4,1.71,6.26,5.25,7.66,5.09,2,10.19,4,15.17,6.29,3.72,1.7,6.65,1,9.42-1.83,3.9-4,7.92-8,11.92-11.91,9.25-9.12,20.24-9.24,29.44-.21q12.7,12.45,25.19,25.1c8.93,9,8.91,20.09,0,29.12q-6.16,6.27-12.45,12.43c-2.63,2.57-3.24,5.36-1.73,8.79,2.29,5.23,4.44,10.54,6.57,15.84,1.38,3.44,3.77,5,7.52,4.88,6.12-.14,12.24-.09,18.36,0a19.2,19.2,0,0,1,16.48,8.73A55.08,55.08,0,0,1,384,149Z"/><path class="cls-1" d="M294.47,176a83.83,83.83,0,0,1-23.29,54.12c-2.38,2.52-5,3.8-8.32,2.49-4.27-1.68-5.05-7-1.45-10.86a78.52,78.52,0,0,0,14.45-21.21c19.55-43.16-10.22-93.95-57.54-98.09-21.06-1.85-39.35,4.45-54.93,18.66-.65.59-1.27,1.22-2,1.75-3.25,2.49-7,2.24-9.34-.59a6.08,6.08,0,0,1,.94-9c6.67-5.17,13.13-11.06,20.64-14.65,31.4-15,61.68-12.14,89.28,9,19.13,14.69,29.35,34.81,31.09,59C294.27,169.73,294.33,172.84,294.47,176Z"/><path class="cls-1" d="M127.63,313c-33-.61-57.93-26.51-57.14-59.71.65-28,23.41-55.41,57.5-55.19,33.13.22,57.93,25.86,57.56,57.84C185.13,292.83,158,312.22,127.63,313Zm44.94-57.56a44.68,44.68,0,0,0-89.36.38c0,24.51,20.3,44.47,45.08,44.39A44.7,44.7,0,0,0,172.57,255.44Z"/></g></g></svg>