<svg xmlns="http://www.w3.org/2000/svg" viewBox="0 0 383.36 384"><defs><style>.cls-1{fill:#fff;}</style></defs><g id="Layer_2" data-name="Layer 2"><g id="Layer_1-2" data-name="Layer 1"><path class="cls-1" d="M308.92,208.52c-.75-5.42-.95-11-2.33-16.25-8.17-31.16-28-50.79-59.76-56-30.43-5-55.25,6.29-72.73,31.8-12.77,18.64-15.44,39.43-9.18,61.17a9,9,0,0,0,4.53,5.28c4.32,1.68,8-2.4,6.7-7.17a71.53,71.53,0,0,1-2.55-24.42c2.74-33.38,33.49-61.36,70.89-55.56,35.75,5.55,58.18,38.68,51.1,74.25-6.29,31.58-39.46,53.86-70.78,47.84a62.76,62.76,0,0,1-38.29-22.85,9,9,0,0,0-3.76-2.86,5.07,5.07,0,0,0-6.23,2.13c-1.9,2.86-1.16,5.42.85,7.86,17.07,20.64,38.85,30.44,65.58,27.63A73.7,73.7,0,0,0,308.92,208.52Zm-80.69-9.59c-.49-.45-1.39-1.32-2.31-2.14-7.67-6.87-18.4-6.63-25.16.54s-6.4,17.65.78,24.88q7.38,7.44,15,14.66c7.54,7.17,17.82,7.25,25.12-.05,10-10,19.75-20.12,29.51-30.29A16.57,16.57,0,0,0,276,192.15c-1.09-7.3-5.07-12.45-12.22-14.6-6.89-2.07-13-.41-18.14,4.73C239.94,187.89,234.09,193.32,228.23,198.93Z"/><path class="cls-1" d="M208.12,0c1.41,1.23,2.89,2.38,4.2,3.69Q245.16,36.54,278,69.37a11.4,11.4,0,0,1,3.65,8.91c-.17,13.12,0,26.24-.11,39.37a4.68,4.68,0,0,0,2.67,4.71q37.8,22.19,47.71,65a20.31,20.31,0,0,1,.68,4.43c0,3-1.42,5-4.47,5.56s-5.28-.51-6.27-3.42c-.8-2.34-1.14-4.84-1.76-7.25a87.76,87.76,0,0,0-171.73,8.57c-7.29,46.88,24.78,91.52,71.54,99.57a87.61,87.61,0,0,0,101.82-72.35c.41-2.45.63-5,.86-7.43.37-4,2.66-6.51,5.92-6.37s5.57,2.78,5.34,6.76a96.71,96.71,0,0,1-13.08,42.89c-.74,1.29-1.51,2.55-2.08,3.51l13.53,13.51c4.61-1.88,5.71-1.65,9.87,2.52q16.41,16.44,32.8,32.88c11.06,11.14,11.3,27.95.61,38.56s-27.2,10.24-38.23-.72S315,326.32,303.93,315.18c-3.63-3.63-3.91-5.22-1.9-9.67l-13.41-13.3-.74.28c-5.4,1.88-6.55,5.66-6.44,11.23.4,19.48-.19,39,.3,58.47.26,10.45-3,17.93-13,21.81h-256A21.79,21.79,0,0,1,0,371.25V84.75c1.92-2.44,3.94-4.56,7.52-3.16s3.73,4.2,3.73,7.36q0,137.79,0,275.58c0,6.5,1.71,8.2,8.17,8.2H262c6.77,0,8.3-1.52,8.3-8.38q0-29.62,0-59.24v-3.34c-6.37,1.5-12.46,3.23-18.66,4.3A93.65,93.65,0,0,1,236,307.48c-41.29.11-82.59.06-123.88.06-4.76,0-7.31-1.94-7.33-5.52s2.62-5.73,7.58-5.73h75.52c-5.55-4-11.21-7.2-15.82-11.55-4-3.74-8-4.53-13.09-4.46-15.22.23-30.44.11-45.66.06-1.72,0-3.94.18-5-.76-1.58-1.37-3.38-3.79-3.19-5.56s2.58-3.45,4.33-4.74c.83-.61,2.42-.24,3.66-.24h43.16c-.79-1.33-1.21-2.16-1.75-2.91a96.54,96.54,0,0,1-16-36c-.48-2.27-1.29-3.08-3.66-3-7.85.14-15.72.06-23.57,0-3,0-5.77-1.17-6.17-4.27-.24-1.87.86-4.27,2.11-5.84.77-1,2.94-1.08,4.49-1.1,8-.1,15.94,0,24.22,0V199.54h-6.77c-5.86,0-11.72,0-17.59,0-4.33,0-6.87-2.18-6.8-5.67s2.61-5.55,7-5.57c7.49,0,15,0,22.46,0h3.87a100.48,100.48,0,0,1,18.35-40.06c-1.91-.11-3.1-.23-4.28-.23q-19.28,0-38.55,0a28.15,28.15,0,0,1-4.11-.16c-2.85-.41-4.85-2.34-4.53-5,.23-2,1.89-4.1,3.49-5.48,1-.87,3.08-.67,4.68-.67,16.84,0,33.69,0,50.53-.12a10.65,10.65,0,0,0,5.55-2.18c6-4.33,11.94-8.9,18.3-13.68h-3.94q-35.37,0-70.74,0a14.4,14.4,0,0,1-4.4-.54,5,5,0,0,1-3.59-5.84,5.2,5.2,0,0,1,4.92-4.81,16.62,16.62,0,0,1,1.87,0H236.32a95.21,95.21,0,0,1,30.78,5.23c.91.31,1.87.51,3,.83V81.07h-4q-23.76,0-47.53,0c-11,0-17.93-7-17.94-18.06q0-23.62,0-47.24V11.43c-1.46-.07-2.67-.18-3.87-.18H19.37c-6.45,0-8.14,1.71-8.14,8.23,0,14.12,0,28.24,0,42.37,0,3.16-.15,6.13-3.47,7.58S2.17,68.89,0,66.75v-54A21.69,21.69,0,0,1,12.73,0Zm52.35,69.72C244.3,53.52,228,37.18,211.94,21.07c0,13.94-.08,28.54.05,43.13a5.14,5.14,0,0,0,5.46,5.48C232,69.77,246.58,69.72,260.47,69.72Zm62.47,214.39L311.85,273l-12.34,12.32,11.1,11.41Z"/><path class="cls-1" d="M88.31,128.81c0,4,.08,8,0,12-.17,7.18-5.3,12.64-12.46,12.83q-12.52.33-25,0c-7-.21-12.05-5.3-12.3-12.56-.28-8.23-.29-16.49,0-24.72.26-7.73,5.54-12.57,13.34-12.67s15.46-.12,23.18,0c8.06.13,13.22,5.46,13.31,13.53C88.35,121.07,88.31,124.94,88.31,128.81Zm-11.47-.29h.07c0-3.37-.09-6.75,0-10.11.08-2.25-.82-3.18-3-3.16q-10.47.06-20.94,0c-2,0-2.94.73-2.91,2.85.1,7.12,0,14.24.25,21.35A3.72,3.72,0,0,0,52.84,142c7,.22,14,.1,20.93.13,2.19,0,3.16-.92,3.1-3.16C76.77,135.51,76.84,132,76.84,128.52Z"/><path class="cls-1" d="M88.31,288.46c0,3.88,0,7.75,0,11.62-.11,7.62-5.2,13-12.84,13.22-8.09.21-16.21.22-24.3,0-7.52-.21-12.5-5.3-12.71-12.94q-.33-12,0-24c.22-8.11,5.54-13,13.74-13.06q11.22-.06,22.44,0c8.44.06,13.63,5.36,13.68,13.91C88.33,281,88.31,284.72,88.31,288.46Zm-11.46.24h.06c0-3.62-.07-7.24,0-10.86.06-2.26-.9-3.12-3.12-3.1-6.85.06-13.7.09-20.56,0-2.47,0-3.27,1-3.23,3.33.13,6.86.15,13.73.12,20.59,0,2,.63,3,2.77,3q10.45-.09,20.93,0c2.26,0,3.1-.94,3-3.16C76.77,295.2,76.85,292,76.85,288.7Z"/><path class="cls-1" d="M63.25,232.57c-3.86,0-7.72,0-11.59,0-7.76-.11-13-4.93-13.2-12.73q-.37-12.17,0-24.34c.26-7.81,5.39-12.55,13.27-12.63s15.7-.1,23.54,0,13,5.29,13,13.25q.09,11.59,0,23.21c-.07,7.9-5.25,13.11-13.09,13.22C71.23,232.61,67.24,232.56,63.25,232.57Zm-12.91-11.5c8.38,0,16.21,0,24,0,2.41,0,2.47-1.52,2.47-3.25,0-4.74.06-9.48.06-14.21,0-9.28,0-9.28-9.1-9.28H50.34Z"/><path class="cls-1" d="M308.92,208.52a73.7,73.7,0,0,1-66,72.83c-26.73,2.81-48.51-7-65.58-27.63-2-2.44-2.75-5-.85-7.86a5.07,5.07,0,0,1,6.23-2.13,9,9,0,0,1,3.76,2.86,62.76,62.76,0,0,0,38.29,22.85c31.32,6,64.49-16.26,70.78-47.84,7.08-35.57-15.35-68.7-51.1-74.25-37.4-5.8-68.15,22.18-70.89,55.56a71.53,71.53,0,0,0,2.55,24.42c1.26,4.77-2.38,8.85-6.7,7.17a9,9,0,0,1-4.53-5.28c-6.26-21.74-3.59-42.53,9.18-61.17,17.48-25.51,42.3-36.83,72.73-31.8,31.71,5.23,51.59,24.86,59.76,56C308,197.53,308.17,203.1,308.92,208.52Z"/><path class="cls-1" d="M228.23,198.93c5.86-5.61,11.71-11,17.37-16.65,5.19-5.14,11.25-6.8,18.14-4.73,7.15,2.15,11.13,7.3,12.22,14.6a16.57,16.57,0,0,1-4.81,14.38c-9.76,10.17-19.54,20.32-29.51,30.29-7.3,7.3-17.58,7.22-25.12.05q-7.59-7.22-15-14.66c-7.18-7.23-7.46-17.8-.78-24.88s17.49-7.41,25.16-.54C226.84,197.61,227.74,198.48,228.23,198.93Z"/></g></g></svg>