<svg xmlns="http://www.w3.org/2000/svg" viewBox="0 0 383.18 345.13"><defs><style>.cls-1{fill:#fff;}</style></defs><g id="Layer_2" data-name="Layer 2"><g id="Layer_1-2" data-name="Layer 1"><path class="cls-1" d="M383.18,341.21c-4.23,4.66-5.91,4.94-12,2-23.91-11.5-47.79-23-71.76-34.41a8.42,8.42,0,0,0-5.85-.29Q245,326.06,196.42,343.9a13.34,13.34,0,0,1-9.75,0c-32.25-11.85-64.55-23.57-96.8-35.42a7.75,7.75,0,0,0-6.66.42c-24,11.62-48,23.1-72,34.68-2.82,1.36-5.6,2.36-8.46.43s-2.9-5-2.6-8.06q5.13-53.79,10.22-107.58,4.31-45.78,8.43-91.6c.38-4.22,1.94-7,5.91-9.07q34.56-17.76,68.9-36c3.5-1.84,6.63-2.16,10.27-.5,6.34,2.87,12.86,5.38,19.26,8.13,4.21,1.8,5.81,5,4.43,8.55s-5.09,4.83-9.41,3.1-8.68-3.58-13.38-5.53c-.8,12.45-1.59,24.37-2.35,36.3q-2.52,39.94-5,79.89c-1.5,24-3,48-4.43,72.06a3.72,3.72,0,0,0,1.74,3q44.51,16.35,89.1,32.46c.21.08.49,0,1.32-.11v-4.6q0-61.74,0-123.49a35.15,35.15,0,0,1,.09-4.11c.45-3.75,3-6.06,6.38-6s5.86,2.36,6.28,6.15a37.49,37.49,0,0,1,.08,4.11V329.48c1.52-.43,2.56-.65,3.56-1,28.31-10.29,56.6-20.65,85-30.83,3.19-1.14,3.87-2.58,3.63-5.91-1.55-21.51-2.79-43.05-4.13-64.58q-2.5-39.75-5-79.51c-.86-13.81-1.69-27.62-2.58-42.11l-10.8,4.36c-1.5.6-3,1.3-4.53,1.75a6.24,6.24,0,0,1-7.41-3.51c-1.26-2.83-.43-6.52,2.45-7.8,8.06-3.61,16.22-7,24.5-10.09,1.65-.62,4.22.2,6,1.11,23.57,12.18,47.05,24.52,70.6,36.74a8.8,8.8,0,0,1,5,7.68q2.66,29.06,5.39,58.09,3.22,34.44,6.47,68.87c1.86,19.86,3.67,39.72,5.56,59.57.39,4.07,1,8.12,1.55,12.18Zm-13.82-13.09c-.62-6.59-1.19-12.49-1.74-18.39q-3.5-38-7-76c-2.88-30.65-5.87-61.28-8.63-91.94-.24-2.69-1.33-3.89-3.49-5-16.37-8.46-32.7-17-49-25.54-2.5-1.3-5-2.57-7.88-4a16.6,16.6,0,0,0-.19,2.22q1.75,28.94,3.55,57.86,4,62.9,7.92,125.79a4.8,4.8,0,0,0,3.21,4.71c16.53,7.84,33,15.82,49.5,23.75C359.9,323.67,364.27,325.72,369.36,328.12ZM91.8,107.59a6.87,6.87,0,0,0-1.56.29c-19,9.9-38,19.79-56.92,29.82a5,5,0,0,0-2,3.47c-.72,6.06-1.17,12.16-1.75,18.24q-3.6,38-7.22,75.92Q18.66,274.42,15,313.5c-.43,4.66-.75,9.32-1.13,14,.73,0,1,.08,1.2,0q31.68-15.17,63.29-30.44a4,4,0,0,0,1.7-2.86q2.72-41.43,5.27-82.86,2.1-33.22,4.2-66.44C90.31,132.6,91,120.29,91.8,107.59Z"/><path class="cls-1" d="M191.66,0c31.91.54,57.91,22.18,63,53.38a55.78,55.78,0,0,1-7.45,38.48q-24.6,41.27-49.22,82.51c-3.82,6.4-9.09,6.4-12.9,0-16.1-26.95-31.86-54.12-48.34-80.85-21.5-34.88-2.9-81.06,39.4-91.28C181.22,1,186.49.73,191.66,0Zm-.2,160a16.69,16.69,0,0,0,1.12-1.39C207.39,133.79,222.32,109,237,84.13c6-10.23,7.16-21.44,4.41-32.9-6.3-26.33-32.88-42.8-60.51-37.06-35.46,7.37-50.58,45.2-33,73.14,14.24,22.68,27.56,45.93,41.29,68.93C189.79,157.38,190.52,158.49,191.46,160Z"/><path class="cls-1" d="M159.6,64.27a32,32,0,1,1,32,31.9A32.23,32.23,0,0,1,159.6,64.27Zm32,19.07a19.16,19.16,0,1,0-19.2-19.19A19.09,19.09,0,0,0,191.59,83.34Z"/></g></g></svg>