<svg xmlns="http://www.w3.org/2000/svg" viewBox="0 0 384.36 385.84"><defs><style>.cls-1{fill:#fff;}</style></defs><g id="Layer_2" data-name="Layer 2"><g id="Layer_1-2" data-name="Layer 1"><path class="cls-1" d="M286.92,385.84c-5.41-.89-10.83-1.67-16.21-2.7-20.7-4-40.06-11.75-58.87-21-37.87-18.6-72.26-42.34-102.43-71.82C65,247,29.26,197.75,8.84,138.47,3.13,121.91-.38,105,0,87.29c.38-16.47,5.53-31.05,17-42.94C28,33.1,38.71,21.55,50.56,11.34,68.7-4.29,87.79-3.73,105.06,12.82c17.75,17,35,34.56,51.85,52.44,13.06,13.86,13,34.43.18,48.53-9.43,10.39-19.53,20.19-29.56,30-2.32,2.27-2.49,3.83-1.13,6.64,8.15,16.87,19.31,31.63,31.57,45.63,17.85,20.39,37.66,38.6,60.5,53.31,5.67,3.66,11.81,6.58,17.63,10,2.09,1.24,2.94-.13,4.05-1.24q12.66-12.63,25.3-25.27c6.41-6.37,13.56-11.55,22.66-13.32,12.25-2.38,23.15,1,31.9,9.42,18.12,17.53,36,35.3,53.48,53.51,14,14.6,14.59,35.29,1.18,50.47-11.93,13.51-24.79,26.26-37.86,38.7-8.54,8.13-19.46,12.1-31.23,13.47a11,11,0,0,0-2.1.7Zm4.73-19.53c15.38.21,26-2.83,34.44-11q16.61-16.11,32.32-33.12c8.25-8.9,8.25-18.37-.23-27.1Q333,269.19,307.07,244c-7-6.84-15.8-6.78-23.53-.73a53.5,53.5,0,0,0-4.75,4.28c-9.34,9.29-18.62,18.64-28,27.92-6.27,6.21-12.83,7.3-20.56,3.36-5.46-2.79-10.93-5.59-16.19-8.74-25.48-15.31-47.5-34.77-67.32-56.81-15.81-17.59-30.15-36.19-39.84-58-4.49-10.1-3.5-15.56,4.4-23.21,9.11-8.81,18.22-17.62,27.12-26.63,11-11.18,11.08-20.07.14-31.13Q115.43,50.89,92,27.78a30.13,30.13,0,0,0-8.8-6.23c-8.85-3.85-15.79.34-21.91,6.34Q47.3,41.6,33.58,55.56c-4.69,4.76-8.66,10-10.95,16.45-4.46,12.51-3.53,25.21-1,37.83,5.06,25.27,15.09,48.73,27.59,71.1A406.28,406.28,0,0,0,134.45,286.8,371.6,371.6,0,0,0,243,354.56C259.77,361.35,277.17,365.83,291.65,366.31Z"/></g></g></svg>